<?xml version="1.0" standalone="no"?>
<!DOCTYPE svg PUBLIC "-//W3C//DTD SVG 1.1//EN" "http://www.w3.org/Graphics/SVG/1.1/DTD/svg11.dtd" >
<svg xmlns="http://www.w3.org/2000/svg">
  <metadata>Created by iconfont</metadata>
  <defs>
  <font id="ls-icon-font" horiz-adv-x="1024">
    <font-face
      font-family="ls-icon-font"
      font-weight="400"
      font-stretch="normal"
      units-per-em="1024"
      ascent="896"
      descent="-128"
    />
      <missing-glyph />
      
      <glyph glyph-name="a-shipin2x" unicode="&#59140;" d="M891.245714 893.952H132.754286C60.562286 893.952 2.048 835.437714 2.048 763.245714v-758.491428c0-72.192 58.514286-130.706286 130.706286-130.706286h758.491428c72.192 0 130.706286 58.514286 130.706286 130.706286V763.245714c0 72.192-58.514286 130.706286-130.706286 130.706286z m0-109.714286c11.629714 0 20.992-9.362286 20.992-20.992v-758.491428a20.992 20.992 0 0 0-20.992-20.992H132.754286a20.992 20.992 0 0 0-20.992 20.992V763.245714c0 11.629714 9.362286 20.992 20.992 20.992h758.491428zM336.310857 716.946286a157.257143 157.257143 0 1 1 0-314.514286 157.257143 157.257143 0 0 1 0 314.514286z m0-109.714286a47.542857 47.542857 0 1 0 0-95.085714 47.542857 47.542857 0 0 0 0 95.085714zM652.288 425.398857a54.857143 54.857143 0 0 0 73.581714-0.146286l278.162286-252.854857a54.857143 54.857143 0 1 0-73.874286-81.188571l-241.371428 219.428571-215.917715-194.340571a54.857143 54.857143 0 0 0-65.828571-5.705143l-6.582857 4.827429-143.579429 123.099428-167.058285-125.293714a54.857143 54.857143 0 0 0-71.460572 4.827428l-5.339428 6.144a54.857143 54.857143 0 0 0 10.971428 76.8l202.24 151.698286a54.857143 54.857143 0 0 0 68.608-2.267428l140.434286-120.246858 217.014857 195.291429z"  horiz-adv-x="1024" />
      
      <glyph glyph-name="a-icon_OCRshibie2x" unicode="&#59133;" d="M316.928 877.714286a54.857143 54.857143 0 1 0 0-109.714286H128v-188.928a54.857143 54.857143 0 0 0-47.396571-54.345143L73.142857 524.214857a54.857143 54.857143 0 0 0-54.857143 54.857143V774.070857C18.285714 831.341714 64.658286 877.714286 121.929143 877.714286h194.998857zM73.142857 243.785143a54.857143 54.857143 0 0 0 54.857143-54.857143v-188.928h188.928a54.857143 54.857143 0 0 0 54.345143-47.396571l0.512-7.460572a54.857143 54.857143 0 0 0-54.857143-54.857143H121.929143A103.643429 103.643429 0 0 0 18.285714-6.070857V188.928a54.857143 54.857143 0 0 0 54.857143 54.857143zM950.857143 243.785143a54.857143 54.857143 0 0 0 54.857143-54.857143v-194.998857c0-57.270857-46.372571-103.643429-103.643429-103.643429H707.072a54.857143 54.857143 0 1 0 0 109.714286h188.928V188.928a54.857143 54.857143 0 0 0 47.396571 54.345143L950.857143 243.785143zM902.070857 877.714286c57.270857 0 103.643429-46.372571 103.643429-103.643429v-194.998857a54.857143 54.857143 0 1 0-109.714286 0V768H707.072a54.857143 54.857143 0 0 0-54.345143 47.396571L652.214857 822.857143a54.857143 54.857143 0 0 0 54.857143 54.857143h194.998857zM755.785143 438.857143a54.857143 54.857143 0 0 0 0-109.714286H268.214857a54.857143 54.857143 0 1 0 0 109.714286h487.570286zM755.785143 633.929143a54.857143 54.857143 0 0 0 0-109.714286H268.214857a54.857143 54.857143 0 1 0 0 109.714286h487.570286zM755.785143 243.785143a54.857143 54.857143 0 1 0 0-109.714286H268.214857a54.857143 54.857143 0 1 0 0 109.714286h487.570286z"  horiz-adv-x="1024" />
      
      <glyph glyph-name="a-icon_zuobian2x" unicode="&#59134;" d="M972.8 435.2a51.2 51.2 0 0 0 0-102.4H51.2a51.2 51.2 0 0 0 0 102.4h921.6zM322.2016 727.3984a51.2 51.2 0 0 0 72.3968-72.3968L123.648 384l270.9504-271.0016a51.2 51.2 0 0 0 4.2496-67.584l-4.2496-4.8128a51.2 51.2 0 0 0-72.3968 0l-307.2 307.2a51.2 51.2 0 0 0 0 72.3968l307.2 307.2z"  horiz-adv-x="1024" />
      
      <glyph glyph-name="a-icon_shezhi2x" unicode="&#59135;" d="M585.796023 865.28A81.846857 81.846857 0 0 0 512.799451 818.102857c-30.72 0-58.806857 18.285714-72.996571 47.177143a54.857143 54.857143 0 0 1-64.365714 28.525714 506.806857 506.806857 0 0 1-211.968-123.245714 54.857143 54.857143 0 0 1-14.262857-55.661714l2.779428-7.241143c5.778286-12.141714 8.777143-25.526857 8.777143-39.497143 0-45.714286-32.475429-82.578286-73.362286-87.259429l-10.020571-0.512a54.857143 54.857143 0 0 1-53.321143-38.985142 550.838857 550.838857 0 0 1-12.946286-264.850286 54.857143 54.857143 0 0 1 51.785143-44.251429l15.652572 0.658286c44.909714 0 82.285714-38.765714 82.285714-87.771429 0-17.92-5.046857-34.816-14.116572-49.078857l-5.924571-8.265143a54.857143 54.857143 0 0 1 2.340571-71.826285 509.220571 509.220571 0 0 1 222.793143-141.238857 54.857143 54.857143 0 0 1 65.974857 29.257142l2.706286 7.021715c10.971429 35.986286 42.642286 60.416 78.189714 60.416 32.548571 0 61.878857-20.48 75.044572-51.638857l3.145143-8.777143a54.857143 54.857143 0 0 1 68.754285-36.278857 509.147429 509.147429 0 0 1 222.72 141.165714 54.857143 54.857143 0 0 1 6.948572 65.243428l-4.608 6.582858a90.697143 90.697143 0 0 0-20.041143 57.417142c0 49.005714 37.302857 87.771429 82.358857 87.771429l7.972572-0.438857a54.857143 54.857143 0 0 1 59.392 44.032 550.838857 550.838857 0 0 1-12.946286 264.850286 54.857143 54.857143 0 0 1-45.348572 38.546285l-9.069714 0.438857c-44.982857 0-82.358857 38.765714-82.358857 87.771429 0 10.459429 1.755429 20.626286 5.046857 30.208l3.803429 9.289143a54.857143 54.857143 0 0 1-11.483429 62.902857A506.806857 506.806857 0 0 1 650.308023 893.878857a54.857143 54.857143 0 0 1-64.438857-28.525714z m71.168-89.673143l3.437714-1.316571c32.987429-13.677714 64.146286-31.817143 92.672-54.052572l7.241143-5.997714-0.292571-1.462857a203.410286 203.410286 0 0 1-4.973715-44.617143l0.438857-12.434286c5.193143-86.381714 64.585143-158.208 144.091429-178.980571l5.485714-1.243429 3.291429-15.433143c4.388571-25.234286 6.729143-51.053714 6.729143-77.165714l-0.512-21.577143a362.349714 362.349714 0 0 0-1.682286-21.796571l-1.755429-0.292572c-89.234286-17.334857-156.013714-98.011429-156.013714-194.048l0.585143-15.506285c1.462857-20.48 6.144-40.448 13.531429-59.099429l3.730285-8.411428-1.316571-1.170286c-26.331429-23.259429-55.442286-42.788571-86.528-58.221714l-14.482286-6.729143-3.876571 5.632A190.171429 190.171429 0 0 1 512.799451 81.188571l-13.238857-0.438857a190.610286 190.610286 0 0 1-140.726857-78.994285l-3.949714-5.705143-14.409143 6.729143a399.36 399.36 0 0 0-70.436571 44.690285l-17.481143 14.701715 3.803428 8.411428c9.216 23.405714 14.116571 48.64 14.116572 74.605714l-0.365715 12.434286c-5.193143 86.235429-64.365714 157.915429-143.652571 178.834286l-13.824 3.072c-1.462857 14.628571-2.121143 28.891429-2.121143 43.373714l0.731429 26.038857c1.024 17.188571 2.998857 34.304 5.997714 51.126857l3.218286 15.433143 5.485714 1.243429c83.382857 21.723429 144.530286 99.474286 144.530286 191.414857l-0.512 15.067429-1.682286 14.848-3.072 16.164571 7.314286 5.997714c28.525714 22.235429 59.684571 40.374857 92.672 54.052572l3.364571 1.316571 2.852572-3.364571c35.547429-39.789714 86.308571-63.853714 141.385142-63.853715 55.076571 0 105.837714 24.064 141.385143 63.853715l2.779429 3.364571zM512.799451 594.651429a210.651429 210.651429 0 1 1 0-421.302858 210.651429 210.651429 0 0 1 0 421.302858z m0-109.714286a100.937143 100.937143 0 1 0 0-201.874286 100.937143 100.937143 0 0 0 0 201.874286z"  horiz-adv-x="1024" />
      
      <glyph glyph-name="a-icon_weixin2x" unicode="&#59136;" d="M512 384m-512 0a512 512 0 1 1 1024 0 512 512 0 1 1-1024 0ZM350.8224 493.6704c0-6.5536 2.72384-12.9024 7.33184-17.408a25.55904 25.55904 0 0 1 35.51232 0c4.58752 4.5056 7.31136 11.0592 7.31136 17.408 0 6.5536-2.72384 12.92288-7.31136 17.42848a25.55904 25.55904 0 0 1-35.51232 0 24.9856 24.9856 0 0 1-7.31136-17.408z m195.95264-127.91808c0-5.12 2.08896-10.0352 5.85728-13.7216a19.968 19.968 0 0 1 27.99616 0 19.74272 19.74272 0 0 1 5.8368 13.7216c0 5.12-2.08896 10.0352-5.8368 13.7216a19.968 19.968 0 0 1-27.99616 0 19.74272 19.74272 0 0 1-5.85728-13.7216z m-67.46112 127.91808c0-6.5536 2.70336-12.9024 7.31136-17.408a25.55904 25.55904 0 0 1 35.51232 0c4.58752 4.5056 7.31136 11.0592 7.31136 17.408 0 6.5536-2.72384 12.92288-7.31136 17.42848a25.55904 25.55904 0 0 1-35.51232 0 24.9856 24.9856 0 0 1-7.31136-17.408z m-42.1888-207.6672c-22.56896 0-40.7552 4.5056-63.50848 9.0112l-63.30368-31.1296 18.16576 53.49376c-45.32224 31.15008-72.47872 71.12704-72.47872 120.13568 0 84.66432 81.67424 151.28576 181.32992 151.28576 89.1904 0 167.1168-53.30944 182.76352-124.84608a164.57728 164.57728 0 0 1-17.53088 1.024c-86.07744 0-154.17344-63.13984-154.17344-140.84096 0-12.9024 2.08896-25.41568 5.65248-37.31456-5.44768-0.6144-11.07968-0.8192-16.93696-0.8192z m267.3664-62.32064L718.06976 179.2l-49.70496 26.64448c-18.18624-4.5056-36.352-9.0112-54.31296-9.0112-86.28224 0-154.17344 57.81504-154.17344 129.14688 0 71.14752 67.8912 129.14688 154.17344 129.14688 81.46944 0 153.94816-57.99936 153.94816-129.14688 0-39.97696-27.15648-75.65312-63.488-102.2976z m-58.90048 142.06976c0-5.12 2.08896-10.0352 5.8368-13.7216a19.968 19.968 0 0 1 27.99616 0 19.74272 19.74272 0 0 1 5.85728 13.7216c0 5.12-2.08896 10.0352-5.85728 13.7216a19.968 19.968 0 0 1-27.99616 0 18.88256 18.88256 0 0 1-5.8368-13.7216z"  horiz-adv-x="1024" />
      
      <glyph glyph-name="a-icon_shouji2x" unicode="&#59137;" d="M908.382161 886.301425H416.80331a94.16092 94.16092 0 0 1-94.160919-94.160919v-823.908046a94.16092 94.16092 0 0 1 94.160919-94.16092h491.578851a94.16092 94.16092 0 0 1 94.160919 94.16092V792.140506a94.16092 94.16092 0 0 1-94.160919 94.160919z m0-70.620689a23.54023 23.54023 0 0 0 23.54023-23.54023v-823.908046a23.54023 23.54023 0 0 0-23.54023-23.54023H416.80331a23.54023 23.54023 0 0 0-23.54023 23.54023V792.140506a23.54023 23.54023 0 0 0 23.54023 23.54023h491.578851zM446.569931 673.74492m23.54023 0l384.953379 0q23.54023 0 23.54023-23.54023l0-562.199541q0-23.54023-23.54023-23.540229l-384.953379 0q-23.54023 0-23.54023 23.540229l0 562.199541q0 23.54023 23.54023 23.54023ZM712.445057 775.521103a35.310345 35.310345 0 0 0 0-70.620689h-99.692873a35.310345 35.310345 0 1 0 0 70.620689h99.692873zM756.74777 65.159356a11.770115 11.770115 0 1 0 0-23.54023h-188.321839a11.770115 11.770115 0 0 0 0 23.54023h188.321839z"  horiz-adv-x="1024" />
      
      <glyph glyph-name="a-icon_erweima2x" unicode="&#59138;" d="M0 414.1184h481.8816V896H76.8a76.8 76.8 0 0 1-76.8-76.8v-405.0816zM120.4736 775.5264h240.9344v-240.9344H120.4736V775.5264zM542.1056 896v-481.8816H1024V819.2a76.8 76.8 0 0 1-76.8 76.8H542.1184z m361.4208-361.408H662.592V775.5264h240.9344v-240.9344z m-722.816 60.2368h120.4608v120.4608h-120.4608v-120.4608zM76.8-128h405.0816V353.8816H0V-51.2a76.8 76.8 0 0 1 76.8-76.8z m43.6736 361.408h240.9344v-240.9344H120.4736V233.408z m722.816 481.8816h-120.4608v-120.4608h120.4608v120.4608zM542.1056-128h120.4864v120.4736h-120.4736V-128z m120.4864 361.408v-240.9344h120.4608V233.408h-120.4608z m120.4608-240.9344V-128H947.2a76.8 76.8 0 0 1 76.8 76.8V112.9472h-120.4736v-120.4736h-120.4736z m120.4736 240.9344H1024v120.4736h-120.4736v-120.4736z m-361.408 120.4736v-120.4736h120.4736v120.4736h-120.4736z m-361.408-301.184h120.4608V173.184h-120.4608v-120.4608z"  horiz-adv-x="1024" />
      
      <glyph glyph-name="a-icon_gengduo22x" unicode="&#59139;" d="M329.5232 859.136a51.2 51.2 0 0 0 72.3968 0l438.8864-438.8864a51.2 51.2 0 0 0 0-72.4992L401.92-91.0336a51.2 51.2 0 0 0-72.3968 72.3968L732.16 384 329.5232 786.6368A51.2 51.2 0 0 0 323.584 851.968l5.9392 7.168z"  horiz-adv-x="1024" />
      
      <glyph glyph-name="a-icon_shangchuanshenfenzheng2x" unicode="&#59101;" d="M301.499733 657.066667l68.266667 136.533333h273.066667l68.266666-136.533333zM642.833067 827.733333h-273.066667a34.133333 34.133333 0 0 1-30.5152-18.875733l-68.266667-136.533333A34.133333 34.133333 0 0 1 301.499733 622.933333h409.6a34.133333 34.133333 0 0 1 30.549334 49.390934l-68.266667 136.533333A34.133333 34.133333 0 0 1 642.833067 827.733333z m-21.128534-68.266666l34.133334-68.266667H356.727467l34.133333 68.266667h230.843733zM51.2 657.066667m51.2 0l807.8336 0q51.2 0 51.2-51.2l0-580.266667q0-51.2-51.2-51.2l-807.8336 0q-51.2 0-51.2 51.2l0 580.266667q0 51.2 51.2 51.2ZM910.2336 691.2H102.4A85.333333 85.333333 0 0 1 17.066667 605.866667v-580.266667A85.333333 85.333333 0 0 1 102.4-59.733333h807.8336a85.333333 85.333333 0 0 1 85.333333 85.333333v580.266667a85.333333 85.333333 0 0 1-85.333333 85.333333z m0-68.266667a17.066667 17.066667 0 0 0 17.066667-17.066666v-580.266667a17.066667 17.066667 0 0 0-17.066667-17.066667H102.4a17.066667 17.066667 0 0 0-17.066667 17.066667v580.266667a17.066667 17.066667 0 0 0 17.066667 17.066666h807.8336zM506.299733 133.700267a182.033067 182.033067 0 1 1 0 364.066133 182.033067 182.033067 0 0 1 0-364.066133zM506.299733 523.3664a207.633067 207.633067 0 1 1 0-415.266133 207.633067 207.633067 0 0 1 0 415.266133z m0-51.2a156.433067 156.433067 0 1 0 0-312.866133 156.433067 156.433067 0 0 0 0 312.866133z"  horiz-adv-x="1024" />
      
      <glyph glyph-name="a-icon_genghuanchenggong2x" unicode="&#59124;" d="M0 896m512 0l0 0q512 0 512-512l0 0q0-512-512-512l0 0q-512 0-512 512l0 0q0 512 512 512ZM512 896C794.778566 896 1024 666.778566 1024 384S794.778566-128 512-128 0 101.221434 0 384 229.221434 896 512 896z m0-19.320755C239.905811 876.679245 19.320755 656.094189 19.320755 384S239.905811-108.679245 512-108.679245 1004.679245 111.905811 1004.679245 384 784.094189 876.679245 512 876.679245zM738.671094 582.385509a48.301887 48.301887 0 0 0 68.318189-68.318188l-347.773585-347.773585a48.301887 48.301887 0 0 0-68.318189 0l-173.886792 173.886792a48.301887 48.301887 0 0 0 68.318189 68.318189L425.056604 268.751698l313.61449 313.633811z"  horiz-adv-x="1024" />
      
      <glyph glyph-name="a-icon_genghuantouxiang2x" unicode="&#59125;" d="M301.4656 657.1008L355.6352 765.3376A51.2 51.2 0 0 0 401.408 793.6H611.328a51.2 51.2 0 0 0 45.7728-28.2624l54.0672-108.2368h-409.6zM51.2 657.1008m102.4 0l705.4336 0q102.4 0 102.4-102.4l0-477.9008q0-102.4-102.4-102.4l-705.4336 0q-102.4 0-102.4 102.4l0 477.9008q0 102.4 102.4 102.4ZM506.2656 133.7344a182.0672 182.0672 0 1 1 0 364.032 182.0672 182.0672 0 0 1 0-364.032zM506.2656 548.9664a233.2672 233.2672 0 1 1 0-466.432 233.2672 233.2672 0 0 1 0 466.432z m0-102.4a130.8672 130.8672 0 1 0 0-261.632 130.8672 130.8672 0 0 0 0 261.632z"  horiz-adv-x="1024" />
      
      <glyph glyph-name="a-icon_qunerweima2x" unicode="&#59126;" d="M0 414.1056h481.8944V896H51.2a51.2 51.2 0 0 1-51.2-51.2v-430.6944z m120.4736 361.472h240.9472V534.528H120.4736V775.5264zM542.1056 896v-481.8944H1024V844.8a51.2 51.2 0 0 1-51.2 51.2h-430.6944z m361.472-361.4208H662.528V775.5264h240.9472v-240.9472zM180.6336 594.8416h120.4736V715.264H180.736v-120.4736zM51.2-128h430.6944v481.8944H0V-76.8a51.2 51.2 0 0 1 51.2-51.2z m69.2736 361.4208h240.9472v-240.9472H120.4736v240.9472zM843.264 715.264h-120.4736v-120.4736h120.4736V715.264zM542.1056-128h120.4736v120.4736h-120.4736V-128z m120.4736 361.4208v-240.9472h120.4736v240.9472h-120.4736z m120.4736-240.9472V-128H972.8a51.2 51.2 0 0 1 51.2 51.2v189.7472h-120.4736v-120.4736h-120.4736z m120.4736 240.9472H1024v120.4736h-120.4736v-120.4736z m-361.4208 120.4736v-120.4736h120.4736v120.4736h-120.4736zM180.736 52.6848h120.4736v120.4736H180.736v-120.4736z"  horiz-adv-x="1024" />
      
      <glyph glyph-name="a-icon_jianhao2x" unicode="&#59127;" d="M950.857143 438.857143a54.857143 54.857143 0 1 0 0-109.714286H73.142857a54.857143 54.857143 0 0 0 0 109.714286h877.714286z"  horiz-adv-x="1024" />
      
      <glyph glyph-name="a-icon_qungonggao2x" unicode="&#59128;" d="M516.388571 777.874286v-787.748572l-266.971428 200.411429H122.514286a43.739429 43.739429 0 0 0-43.739429 43.885714V536.868571c0 24.137143 19.602286 43.739429 43.739429 43.739429H249.417143l266.971428 197.193143zM483.766857 821.979429L231.277714 635.611429H122.514286c-54.418286 0-98.596571-44.251429-98.596572-98.742858v-302.518857l0.438857-9.508571a98.596571 98.596571 0 0 1 98.157715-89.088H231.131429l252.342857-189.44a54.857143 54.857143 0 0 1 87.771428 43.885714V777.801143a54.857143 54.857143 0 0 1-87.405714 44.105143z m-22.308571-152.868572v-569.124571L282.331429 234.496l-5.924572 3.876571a54.857143 54.857143 0 0 1-27.062857 7.094858H133.705143V525.897143H249.417143a54.857143 54.857143 0 0 1 32.548571 10.678857L461.531429 669.184zM650.532571 617.472a54.857143 54.857143 0 0 0 77.458286 4.388571A318.902857 318.902857 0 0 0 833.828571 384a318.976 318.976 0 0 0-105.837714-237.860571 54.857143 54.857143 0 0 0-73.142857 81.92c11.044571 9.801143 21.065143 20.845714 29.769143 32.914285 25.453714 35.328 39.497143 77.970286 39.497143 123.026286a209.188571 209.188571 0 0 1-69.266286 156.013714 54.857143 54.857143 0 0 0-4.388571 77.458286zM699.611429 785.261714a54.857143 54.857143 0 0 0 75.556571 17.846857A492.105143 492.105143 0 0 0 1008.859429 384a492.178286 492.178286 0 0 0-240.420572-423.131429 54.857143 54.857143 0 0 0-56.246857 94.208A382.464 382.464 0 0 1 899.145143 384a382.390857 382.390857 0 0 1-181.76 325.778286 54.857143 54.857143 0 0 0-17.773714 75.483428z"  horiz-adv-x="1024" />
      
      <glyph glyph-name="a-icon_mingpian2x" unicode="&#59129;" d="M906.971429 877.714286H117.028571C61.952 877.714286 18.285714 832.219429 18.285714 777.142857v-786.285714c0-55.076571 43.666286-100.571429 98.742857-100.571429h789.942858c55.076571 0 98.742857 45.494857 98.742857 100.571429V777.142857C1005.714286 832.219429 962.048 877.714286 906.971429 877.714286z m-10.971429-109.714286v-768H128V768h768zM475.428571 658.285714h-219.428571a54.857143 54.857143 0 0 1-54.857143-54.857143v-219.428571c0-30.281143 24.576-54.857143 54.857143-54.857143h219.428571A54.857143 54.857143 0 0 1 530.285714 384V603.428571a54.857143 54.857143 0 0 1-54.857143 54.857143z m-54.857142-109.714285v-109.714286h-109.714286v109.714286h109.714286zM777.142857 219.428571a54.857143 54.857143 0 0 0 0-109.714285H256a54.857143 54.857143 0 0 0 0 109.714285h521.142857z"  horiz-adv-x="1024" />
      
      <glyph glyph-name="a-icon_bianjiqunmingcheng2x" unicode="&#59130;" d="M921.6-7.314286a54.857143 54.857143 0 1 0 0-109.714285H102.4a54.857143 54.857143 0 1 0 0 109.714285h819.2zM613.522286 857.161143l-9.801143-8.630857-496.786286-497.225143A128 128 0 0 1 69.485714 260.827429V128c0-50.468571 40.96-91.428571 91.428572-91.428571h133.851428c33.938286 0 66.56 13.458286 90.477715 37.522285l494.153142 494.372572a128.073143 128.073143 0 0 1 0 181.028571L782.555429 846.482286a127.926857 127.926857 0 0 1-168.96 10.678857z m91.282285-88.210286l97.060572-96.987428a18.358857 18.358857 0 0 0 0-25.965715l-494.226286-494.372571-3.803428-2.925714a18.285714 18.285714 0 0 0-9.069715-2.413715H179.2V260.827429a18.285714 18.285714 0 0 0 5.339429 12.946285l494.592 495.177143 1.682285 1.609143a18.212571 18.212571 0 0 0 23.990857-1.609143zM584.045714 754.761143l203.483429-202.166857L710.217143 474.697143 506.733714 676.864z"  horiz-adv-x="1024" />
      
      <glyph glyph-name="a-icon_shezhi22x" unicode="&#59131;" d="M387.584-25.6a436.736 436.736 0 0 0-189.184 112.9984c19.1488 22.272 30.72 50.9952 30.72 82.432 0 70.6048-58.4704 127.7952-130.56 127.7952-4.352 0-8.704-0.2048-12.9024-0.6144a419.4304 419.4304 0 0 0 11.0592 213.7088h1.8432c72.0896 0 130.56 57.2416 130.56 127.8464 0 20.2752-4.8128 39.424-13.4144 56.4736A437.0432 437.0432 0 0 0 395.6224 793.6 130.8672 130.8672 0 0 1 512 723.7632c50.7904 0 94.7712 28.416 116.3776 69.8368 68.096-18.432 129.536-52.736 179.9168-98.56a125.1328 125.1328 0 0 1-13.4144-56.4736c0-70.656 58.4704-127.8464 130.56-127.8464h1.8432a419.4304 419.4304 0 0 0 11.1104-213.7088 134.912 134.912 0 0 1-12.9536 0.6144c-72.0896 0-130.56-57.1904-130.56-127.7952 0-31.4368 11.5712-60.16 30.72-82.432A436.736 436.736 0 0 0 636.416-25.6 130.3552 130.3552 0 0 1 512 63.2832c-58.2144 0-107.52-37.376-124.416-88.8832zM582.9632 817.2544c-13.312-25.6-40.5504-42.2912-70.9632-42.2912a79.9744 79.9744 0 0 0-67.328 36.096l-3.6352 6.1952a51.2 51.2 0 0 1-58.7776 25.7536A488.2432 488.2432 0 0 1 181.248 732.8768a51.2 51.2 0 0 1-13.7216-55.1936l2.4576-5.6832c5.2224-10.3424 7.936-21.6576 7.936-33.4336 0-39.7824-31.488-72.8064-72.0896-76.3392l-8.3968-0.3072a51.2 51.2 0 0 1-49.4592-35.5328 470.6304 470.6304 0 0 1-12.4416-239.8208 51.2 51.2 0 0 1 54.9888-40.4992c2.6624 0.256 5.3248 0.3584 8.0384 0.3584 44.032 0 79.36-34.56 79.36-76.5952 0-15.616-4.7616-30.3616-13.568-42.9056l-4.7616-6.0928a51.2 51.2 0 0 1 2.304-69.3248A487.936 487.936 0 0 1 373.248-74.752a51.2 51.2 0 0 1 60.8768 27.8016l2.0992 5.4784c10.2912 31.4368 40.704 53.5552 75.7248 53.5552 32.512 0 61.0816-19.0464 73.216-47.0016l2.5088-6.5536a51.2 51.2 0 0 1 62.976-33.28 487.936 487.936 0 0 1 211.456 126.2592 51.2 51.2 0 0 1 6.1952 64.1024l-3.9424 5.2224a74.5472 74.5472 0 0 0-18.3296 48.9984c0 42.0352 35.328 76.5952 79.36 76.5952 2.7136 0 5.376-0.1024 8.0384-0.3584a51.2 51.2 0 0 1 54.9888 40.448 470.6304 470.6304 0 0 1-12.4416 239.872 51.2 51.2 0 0 1-49.4592 35.5328h-1.1264c-44.032 0-79.36 34.56-79.36 76.6464 0 9.4208 1.7408 18.5344 5.12 27.136l2.816 6.2976a51.2 51.2 0 0 1-11.264 60.8768 488.2432 488.2432 0 0 1-201.0112 110.1312 51.2 51.2 0 0 1-55.7056-20.6336l-3.072-5.12z m65.4848-83.8144l13.9264-5.4784c25.6-10.6496 49.9712-24.0128 72.6016-39.7824l13.312-9.728-1.024-4.608a177.152 177.152 0 0 1-3.584-35.328l0.256-9.8304c4.3008-78.08 59.2896-142.592 132.864-162.7136l10.24-2.4064 3.2256-15.616c3.7888-21.2992 5.7344-43.008 5.7344-65.0752l-0.512-19.0976-1.3824-17.6128-7.5776-1.4336c-81.5616-17.5104-142.848-89.0368-142.848-174.8992l0.3584-11.6736c1.28-19.3536 5.6832-38.0928 12.9536-55.6544l2.6624-5.9904-7.0656-5.888a385.6896 385.6896 0 0 0-84.0192-50.176l-7.2704-2.9696-3.7376 5.2224A182.7328 182.7328 0 0 1 512 114.4832l-10.2912-0.3072a182.5792 182.5792 0 0 1-135.2704-71.4752l-3.7888-5.2224-7.168 2.9184A385.6896 385.6896 0 0 0 271.36 90.624l-7.1168 5.888 2.7136 5.9904c8.704 21.0944 13.312 43.8784 13.312 67.328l-0.256 9.8304c-4.5056 81.4592-64.2048 148.224-142.592 165.0688l-7.6288 1.4336-1.3312 17.6128a372.992 372.992 0 0 0-0.512 19.0976l0.3584 16.4864c0.7168 16.384 2.56 32.6144 5.376 48.5888l3.1744 15.616 0.5632 0.0512c81.5616 17.5616 142.848 89.0368 142.848 174.9504l-0.4096 11.8784a176.64 176.64 0 0 1-3.1232 23.3984l-1.1264 4.608 13.3632 9.728c22.6304 15.7696 46.9504 29.1328 72.6016 39.7824l13.8752 5.4784 5.12-5.632A182.9376 182.9376 0 0 1 512 672.5632c50.688 0 97.7408 20.6336 131.328 55.296l5.12 5.5808zM512 239.616c84.1216 0 152.32 66.7648 152.32 149.1456 0 82.432-68.1984 149.1456-152.32 149.1456S359.68 471.1424 359.68 388.7616c0-82.3808 68.1984-149.1456 152.32-149.1456zM512 589.1072c-112.128 0-203.52-89.4464-203.52-200.3456 0-110.8992 91.3408-200.3456 203.52-200.3456 112.128 0 203.52 89.4464 203.52 200.3456 0 110.8992-91.3408 200.3456-203.52 200.3456z m0-102.4c56.064 0 101.12-44.0832 101.12-97.9456S568.064 290.816 512 290.816c-56.064 0-101.12 44.0832-101.12 97.9456S455.936 486.7072 512 486.7072z"  horiz-adv-x="1024" />
      
      <glyph glyph-name="a-icon_wenjian2x" unicode="&#59132;" d="M432.9472 851.626667H161.314133A96.256 96.256 0 0 1 64.853333 755.5072v-725.6064a96.256 96.256 0 0 1 96.4608-96.119467h769.6384a96.256 96.256 0 0 1 96.4608 96.119467V612.420267l-0.4096 9.284266a96.324267 96.324267 0 0 1-96.0512 86.8352H570.914133L473.088 832.170667A51.2 51.2 0 0 1 432.9472 851.626667z m-24.849067-102.4l97.8944-123.6992 5.256534-5.666134A51.2 51.2 0 0 1 546.133333 606.139733h378.88v-569.890133H167.253333V749.226667h240.8448zM928.426667 517.12v-102.4H163.84v102.4z"  horiz-adv-x="1092" />
      
      <glyph glyph-name="a-icon_weijianwei2x" unicode="&#59120;" d="M0 896m180.705882 0l662.588236 0q180.705882 0 180.705882-180.705882l0-662.588236q0-180.705882-180.705882-180.705882l-662.588236 0q-180.705882 0-180.705882 180.705882l0 662.588236q0 180.705882 180.705882 180.705882ZM240.941176 518.384941m60.235295 0l421.647058 0q60.235294 0 60.235295-60.235294l0-254.855529q0-60.235294-60.235295-60.235294l-421.647058 0q-60.235294 0-60.235295 60.235294l0 254.855529q0 60.235294 60.235295 60.235294ZM440.681412 597.323294h142.637176V655.058824H440.681412v-57.73553z m156.912941-14.45647v-64.451765h57.072941v64.451765h-57.072941z m-171.188706-64.451765v64.451765H369.332706v-64.451765h57.072941z m156.912941 78.908235c7.890824 0 14.275765-6.475294 14.275765-14.45647h57.072941c0 39.875765-31.924706 72.192-71.348706 72.192v-57.73553zM440.681412 655.058824C401.287529 655.058824 369.332706 622.742588 369.332706 582.866824h57.072941c0 7.981176 6.384941 14.456471 14.275765 14.45647V655.058824zM597.594353 360.839529a30.117647 30.117647 0 0 0 0-60.235294H426.405647a30.117647 30.117647 0 0 0 0 60.235294h171.188706zM512 447.457882a30.117647 30.117647 0 0 0 30.117647-30.117647v-173.236706a30.117647 30.117647 0 1 0-60.235294 0V417.340235a30.117647 30.117647 0 0 0 30.117647 30.117647z"  horiz-adv-x="1024" />
      
      <glyph glyph-name="a-icon_whhlvw2x" unicode="&#59121;" d="M0 896m180.705882 0l662.588236 0q180.705882 0 180.705882-180.705882l0-662.588236q0-180.705882-180.705882-180.705882l-662.588236 0q-180.705882 0-180.705882 180.705882l0 662.588236q0 180.705882 180.705882 180.705882ZM566.844235 368.007529l61.620706 72.372706 110.923294-168.899764h-135.559529M605.545412 459.896471a30.117647 30.117647 0 0 0 48.097882-3.011765l110.923294-168.869647a30.117647 30.117647 0 0 0-25.178353-46.652235h-135.559529a30.117647 30.117647 0 1 0 0 60.235294h79.751529l-58.247529 88.69647-35.538824-41.833412a30.117647 30.117647 0 0 0-39.454117-5.662117l-3.011765 2.258823a30.117647 30.117647 0 0 0-3.403294 42.465883l61.620706 72.372706zM443.602824 585.125647l172.544-313.645176H271.058824zM417.219765 599.642353l-172.574118-313.645177A30.117647 30.117647 0 0 1 271.058824 241.362824h345.088a30.117647 30.117647 0 0 1 26.383058 44.634352L469.985882 599.642353a30.117647 30.117647 0 0 1-52.766117 0z m26.383059-77.010824l121.584941-221.003294h-243.2l121.615059 221.003294zM752.941176 217.148235a30.117647 30.117647 0 1 0 0-60.235294H271.058824a30.117647 30.117647 0 1 0 0 60.235294h481.882352zM697.494588 655.058824a58.157176 58.157176 0 0 1-58.48847-57.856c0-32.105412 26.322824-57.856 58.48847-57.856a58.157176 58.157176 0 0 1 58.428236 57.825882A58.157176 58.157176 0 0 1 697.524706 655.058824z"  horiz-adv-x="1024" />
      
      <glyph glyph-name="a-icon_shijianju2x" unicode="&#59122;" d="M0 896m180.705882 0l662.588236 0q180.705882 0 180.705882-180.705882l0-662.588236q0-180.705882-180.705882-180.705882l-662.588236 0q-180.705882 0-180.705882 180.705882l0 662.588236q0 180.705882 180.705882 180.705882ZM301.176471 563.169882L512.090353 624.941176 722.823529 563.169882v-126.674823c0-133.12-84.931765-251.361882-210.793411-293.436235A309.248 309.248 0 0 0 301.176471 436.555294v126.614588zM503.627294 653.854118L292.743529 592.082824a30.117647 30.117647 0 0 1-21.654588-28.912942v-126.614588c0-146.130824 93.214118-275.877647 231.424-322.048a30.117647 30.117647 0 0 1 19.094588 0A339.335529 339.335529 0 0 1 752.941176 436.495059v126.674823a30.117647 30.117647 0 0 1-21.654588 28.912942l-210.703059 61.741176a30.117647 30.117647 0 0 1-16.956235 0z m8.463059-60.265412L692.705882 540.611765v-104.116706l-0.12047-8.372706a279.160471 279.160471 0 0 0-174.501647-250.759529l-6.053647-2.319059-6.053647 2.319059a279.220706 279.220706 0 0 0-174.682353 259.19247v104.086588l180.796235 52.946824zM511.518118 504.470588l-33.912471-69.24047-77.040941-11.14353 55.808-54.573176L443.030588 293.647059l68.48753 36.502588L580.005647 293.647059l-13.251765 75.89647 55.717647 54.512942-76.589176 11.173647zM497.995294 511.096471l-30.448941-62.072471-69.150118-10.059294-2.529882-0.572235a15.058824 15.058824 0 0 1-5.842824-25.088l50.115765-48.971295-11.926588-68.065882-0.240941-2.439529a15.058824 15.058824 0 0 1 22.13647-13.462589l61.409883 32.737883 61.44-32.737883 2.198588-0.993882a15.058824 15.058824 0 0 1 19.696941 16.865882l-11.896471 68.065883 50.05553 49.001412 1.716706 1.957647a15.058824 15.058824 0 0 1-10.059294 23.702588l-68.848942 10.059294-30.810352 62.132706a15.058824 15.058824 0 0 1-27.01553-0.060235z m13.583059-40.628706l20.781176-41.923765 1.566118-2.469647a15.058824 15.058824 0 0 1 9.788235-5.722353l46.501647-6.776471-33.972705-33.310117-1.897412-2.228706a15.058824 15.058824 0 0 1-2.409412-11.113412l7.920941-45.447529-41.261176 21.985882-2.740706 1.114353a15.058824 15.058824 0 0 1-11.444706-1.144471l-41.200941-21.925647 7.981176 45.387294 0.240941 2.95153a15.058824 15.058824 0 0 1-4.517647 10.450823l-34.032941 33.249883 46.893177 6.806588a15.058824 15.058824 0 0 1 11.354353 8.282353l20.449882 41.833412z"  horiz-adv-x="1024" />
      
      <glyph glyph-name="a-icon_nongwei2x" unicode="&#59123;" d="M0 896m180.705882 0l662.588236 0q180.705882 0 180.705882-180.705882l0-662.588236q0-180.705882-180.705882-180.705882l-662.588236 0q-180.705882 0-180.705882 180.705882l0 662.588236q0 180.705882 180.705882 180.705882ZM519.559529 432.399059c-44.574118-68.005647-63.156706-159.412706-55.627294-274.281412h77.221647c116.976941 0 211.787294 88.485647 211.787294 197.662118v197.632c-110.983529-12.649412-188.747294-53.007059-233.381647-121.012706zM750.381176 575.849412l3.072 0.150588 2.95153-0.271059a22.588235 22.588235 0 0 0 19.124706-22.317176v-197.632c0-122.006588-105.261176-220.250353-234.37553-220.250353h-77.221647a22.588235 22.588235 0 0 0-22.558117 21.11247c-7.800471 119.386353 11.745882 215.612235 59.331764 288.165647 48.64 74.179765 132.517647 117.669647 249.675294 131.041883z m-27.407058-49.603765c-87.280941-15.480471-148.299294-51.019294-184.500706-106.224941l-5.089883-8.041412c-34.665412-57.223529-50.898824-132.216471-48.188235-225.28l0.240941-5.993412h55.717647l7.107765 0.120471c101.496471 3.463529 182.091294 80.805647 182.091294 174.953412v171.700706l-7.408941-1.204706zM507.632941 471.582118c50.989176-77.703529 72.192-182.211765 63.608471-313.464471h-88.244706C349.304471 158.117647 240.941176 259.252706 240.941176 384V609.882353c126.825412-14.456471 215.732706-60.536471 266.691765-138.300235zM243.501176 632.32l-3.072 0.150588-2.951529-0.271059a22.588235 22.588235 0 0 1-19.124706-22.317176V384c0-137.577412 118.814118-248.470588 264.643765-248.470588h88.244706a22.588235 22.588235 0 0 1 22.558117 21.11247c8.854588 135.800471-13.312 245.067294-67.252705 327.348706-55.055059 83.907765-150.046118 133.150118-283.045648 148.329412z m31.11153-50.085647c101.195294-17.769412 172.092235-58.910118 214.13647-123.030588l5.240471-8.252236c40.839529-66.770824 59.693176-154.563765 56.079059-263.649882l-0.271059-6.595765h-66.800941l-7.55953 0.120471C357.406118 184.530824 263.529412 274.432 263.529412 384v200.071529l11.083294-1.837176zM421.436235 250.729412a19.275294 19.275294 0 0 0-24.154353-11.956706c-76.980706 24.545882-100.743529 104.809412-101.707294 108.182588a18.371765 18.371765 0 0 0 4.517647 18.401882 19.486118 19.486118 0 0 0 18.672941 5.12 18.913882 18.913882 0 0 0 13.70353-13.492705c0.421647-1.415529 5.481412-17.528471 17.347765-35.448471 15.781647-23.792941 35.749647-39.725176 59.331764-47.224471 4.848941-1.536 8.854588-4.909176 11.14353-9.33647 2.319059-4.397176 2.710588-9.547294 1.14447-14.245647z"  horiz-adv-x="1024" />
      
      <glyph glyph-name="a-Union22x" unicode="&#59102;" d="M239.616 819.785143a82.212571 82.212571 0 0 1 0-107.958857l300.617143-332.653715L248.246857 56.32a82.212571 82.212571 0 0 1 0-107.958857l48.713143-53.833143a64.365714 64.365714 0 0 1 97.426286 0l389.997714 431.542857a82.212571 82.212571 0 0 1 0 107.812572l-48.713143 53.979428a72.265143 72.265143 0 0 1-7.606857 7.314286L385.755429 873.618286a64.365714 64.365714 0 0 1-97.426286 0L239.616 819.931429z"  horiz-adv-x="1024" />
      
      <glyph glyph-name="a-icon_bjbm2x" unicode="&#59103;" d="M963.510857-12.653714a54.857143 54.857143 0 1 0 0-109.714286H64a54.857143 54.857143 0 1 0 0 109.714286h899.510857zM642.194286 870.765714L125.074286 353.060571a54.857143 54.857143 0 0 1-16.018286-38.765714v-181.906286c0-30.281143 24.576-54.857143 54.857143-54.857142h182.857143a54.857143 54.857143 0 0 1 38.765714 16.091428l516.827429 516.973714a54.857143 54.857143 0 0 1 0 77.531429L719.872 870.838857a54.857143 54.857143 0 0 1-77.677714 0z m38.838857-116.370285l104.886857-104.96L324.022857 187.245714H218.770286V291.620571l462.262857 462.774858zM616.667429 703.268571l155.721142-155.648-77.531428-77.531428-155.794286 155.648z"  horiz-adv-x="1024" />
      
      <glyph glyph-name="a-Union12x" unicode="&#59104;" d="M784.31232 819.785143a82.212571 82.212571 0 0 0 0-107.958857L483.695177 379.172571 775.681463 56.32a82.212571 82.212571 0 0 0 0-107.958857l-48.713143-53.833143a64.365714 64.365714 0 0 0-97.426286 0L239.54432 325.924571a82.212571 82.212571 0 0 0 0 107.812572l48.713143 53.979428a72.118857 72.118857 0 0 0 7.606857 7.314286L638.172891 873.618286a64.365714 64.365714 0 0 0 97.426286 0l48.713143-53.833143z"  horiz-adv-x="1024" />
      
      <glyph glyph-name="a-icon_caozuo2x" unicode="&#59105;" d="M438.857143 749.714286m36.571428 0l73.142858 0q36.571429 0 36.571428-36.571429l0-73.142857q0-36.571429-36.571428-36.571429l-73.142858 0q-36.571429 0-36.571428 36.571429l0 73.142857q0 36.571429 36.571428 36.571429ZM438.857143 457.142857m36.571428 0l73.142858 0q36.571429 0 36.571428-36.571428l0-73.142858q0-36.571429-36.571428-36.571428l-73.142858 0q-36.571429 0-36.571428 36.571428l0 73.142858q0 36.571429 36.571428 36.571428ZM438.857143 164.571429m36.571428 0l73.142858 0q36.571429 0 36.571428-36.571429l0-73.142857q0-36.571429-36.571428-36.571429l-73.142858 0q-36.571429 0-36.571428 36.571429l0 73.142857q0 36.571429 36.571428 36.571429Z"  horiz-adv-x="1024" />
      
      <glyph glyph-name="a-icon_scbm2x" unicode="&#59106;" d="M702.171429 877.714286a54.857143 54.857143 0 0 0 53.979428-45.056l29.257143-161.718857-107.958857-19.529143-21.138286 116.589714H367.616l-21.065143-116.589714-107.958857 19.529143 29.257143 161.645714A54.857143 54.857143 0 0 0 321.828571 877.714286h380.342858zM950.857143 716.068571a54.857143 54.857143 0 1 0 0-109.714285H73.142857a54.857143 54.857143 0 0 0 0 109.714285h877.714286zM828.928 716.068571H195.072a54.857143 54.857143 0 0 1-54.784-58.587428l48.786286-716.068572a54.857143 54.857143 0 0 1 54.710857-51.126857h536.429714a54.857143 54.857143 0 0 1 54.710857 51.126857l48.786286 716.068572a54.857143 54.857143 0 0 1-54.784 58.514286z m-58.733714-109.714285l-41.252572-606.354286H294.985143l-41.252572 606.354286h516.388572zM400.676571 473.088a54.857143 54.857143 0 0 0 58.587429-50.761143l18.285714-254.098286a54.857143 54.857143 0 1 0-109.421714-7.899428l-18.285714 254.098286a54.857143 54.857143 0 0 0 50.834285 58.660571zM619.739429 473.088a54.857143 54.857143 0 0 1-58.660572-50.761143l-18.285714-254.098286a54.857143 54.857143 0 1 1 109.421714-7.899428l18.285714 254.098286a54.857143 54.857143 0 0 1-50.761142 58.660571z"  horiz-adv-x="1024" />
      
      <glyph glyph-name="a-icon_renshu2x" unicode="&#59107;" d="M388.992 823.552a201.408 201.408 0 1 1 0-402.88 201.408 201.408 0 0 1 0 402.88z m0-96a105.408 105.408 0 1 0 0-210.88 105.408 105.408 0 0 0 0 210.88zM646.144 778.368a48 48 0 0 0 65.92 16.384 201.344 201.344 0 0 0 0-345.28 48 48 0 0 0-54.912 78.464l5.376 3.776a105.344 105.344 0 0 1 0 180.8 48 48 0 0 0-16.384 65.92zM472 341.248h-165.76l-33.28-0.32c-71.68-1.28-104.704-6.592-138.752-23.936a223.36 223.36 0 0 1-97.6-97.6c-19.84-38.912-24-76.608-24.32-171.904v-60.992c-0.064-26.56 21.44-48 48-48h657.536a48 48 0 0 1 48 48l-0.32 86.784c-1.152 83.2-6.08 110.784-24.064 146.112a223.36 223.36 0 0 1-97.6 97.6c-38.912 19.84-76.544 23.936-171.84 24.32z m-179.968-96H471.68l27.52-0.192c59.072-0.96 83.2-4.48 101.12-13.632 23.936-12.16 43.392-31.68 55.616-55.68l1.536-3.136c8.768-19.072 11.52-43.264 12.16-116.736l0.128-21.376H108.224v12.8c0.32 79.488 3.456 108.032 13.888 128.512a127.36 127.36 0 0 0 55.68 55.68c19.2 9.728 45.44 13.12 114.24 13.696zM798.464 296a48 48 0 0 0 64.576 20.992 223.36 223.36 0 0 0 97.6-97.664l5.248-10.88c14.528-32.64 18.176-64.256 18.944-148.8l0.128-73.216a48 48 0 1 0-96 0v55.04l-0.256 28.928c-0.96 65.984-4.224 87.04-13.568 105.408a127.36 127.36 0 0 1-55.68 55.68 48 48 0 0 0-20.992 64.512z"  horiz-adv-x="1024" />
      
      <glyph glyph-name="a-icon_Messages2x" unicode="&#59108;" d="M524.032 40.832c254.464 0 448.768 188.16 448.768 407.232C972.8 667.2 766.464 844.8 512 844.8S51.2 667.2 51.2 448.064c0-158.272 82.176-287.168 237.888-350.848 27.84-11.328-21.376-174.016 38.592-174.016s158.528 117.632 196.352 117.632zM288 428.416m-64 0a64 64 0 1 1 128 0 64 64 0 1 1-128 0ZM512 428.416m-64 0a64 64 0 1 1 128 0 64 64 0 1 1-128 0ZM736 428.416m-64 0a64 64 0 1 1 128 0 64 64 0 1 1-128 0Z"  horiz-adv-x="1024" />
      
      <glyph glyph-name="a-icon_zuzhiguanli2x" unicode="&#59109;" d="M51.2 128m25.6 0l128 0q25.6 0 25.6-25.6l0-128q0-25.6-25.6-25.6l-128 0q-25.6 0-25.6 25.6l0 128q0 25.6 25.6 25.6ZM204.8 179.2H76.8A76.8 76.8 0 0 1 0 102.4V-25.6a76.8 76.8 0 0 1 76.8-76.8H204.8A76.8 76.8 0 0 1 281.6-25.6v128A76.8 76.8 0 0 1 204.8 179.2z m-25.6-102.4v-76.8H102.4V76.8h76.8zM793.6 128m25.6 0l128 0q25.6 0 25.6-25.6l0-128q0-25.6-25.6-25.6l-128 0q-25.6 0-25.6 25.6l0 128q0 25.6 25.6 25.6ZM947.2 179.2H819.2a76.8 76.8 0 0 1-76.8-76.8V-25.6a76.8 76.8 0 0 1 76.8-76.8h128A76.8 76.8 0 0 1 1024-25.6v128a76.8 76.8 0 0 1-76.8 76.8z m-25.6-102.4v-76.8h-76.8V76.8H921.6zM422.4 128m25.6 0l128 0q25.6 0 25.6-25.6l0-128q0-25.6-25.6-25.6l-128 0q-25.6 0-25.6 25.6l0 128q0 25.6 25.6 25.6ZM576 179.2h-128a76.8 76.8 0 0 1-76.8-76.8V-25.6a76.8 76.8 0 0 1 76.8-76.8h128a76.8 76.8 0 0 1 76.8 76.8v128a76.8 76.8 0 0 1-76.8 76.8z m-25.6-102.4v-76.8h-76.8V76.8h76.8zM780.8 384a153.6 153.6 0 0 0 153.6-153.6v-52.1216a51.2 51.2 0 1 0-102.4 0V230.4a51.2 51.2 0 0 1-51.2 51.2H229.4784a51.2 51.2 0 0 1-51.2-51.2v-52.1216a51.2 51.2 0 1 0-102.4 0V230.4a153.6 153.6 0 0 0 153.6 153.6H780.8zM563.2 486.1952V384H460.8V486.1952zM409.6 844.8h204.8a51.2 51.2 0 0 0 51.2-51.2v-204.8a51.2 51.2 0 0 0-51.2-51.2H409.6a51.2 51.2 0 0 0-51.2 51.2V793.6a51.2 51.2 0 0 0 51.2 51.2zM614.4 896H409.6a102.4 102.4 0 0 1-102.4-102.4v-204.8a102.4 102.4 0 0 1 102.4-102.4h204.8a102.4 102.4 0 0 1 102.4 102.4V793.6a102.4 102.4 0 0 1-102.4 102.4z m0-102.4v-204.8H409.6V793.6h204.8z"  horiz-adv-x="1024" />
      
      <glyph glyph-name="a-icon_highlight_gl2x" unicode="&#59110;" d="M51.2 281.6m76.8 0l768 0q76.8 0 76.8-76.8l0-204.8q0-76.8-76.8-76.8l-768 0q-76.8 0-76.8 76.8l0 204.8q0 76.8 76.8 76.8ZM896 332.8h-768A128 128 0 0 1 0 204.8v-204.8a128 128 0 0 1 128-128h768A128 128 0 0 1 1024 0v204.8a128 128 0 0 1-128 128z m0-102.4a25.6 25.6 0 0 0 25.6-25.6v-204.8a25.6 25.6 0 0 0-25.6-25.6h-768A25.6 25.6 0 0 0 102.4 0v204.8a25.6 25.6 0 0 0 25.6 25.6h768zM768 640m-179.2 0a179.2 179.2 0 1 1 358.4 0 179.2 179.2 0 1 1-358.4 0ZM768 870.4a230.4 230.4 0 1 1 0-460.8 230.4 230.4 0 0 1 0 460.8z m0-102.4a128 128 0 1 0 0-256 128 128 0 0 0 0 256zM128 793.6h204.8A76.8 76.8 0 0 0 409.6 716.8v-153.6a76.8 76.8 0 0 0-76.8-76.8h-204.8A76.8 76.8 0 0 0 51.2 563.2V716.8a76.8 76.8 0 0 0 76.8 76.8zM332.8 844.8h-204.8A128 128 0 0 1 0 716.8v-153.6a128 128 0 0 1 128-128h204.8A128 128 0 0 1 460.8 563.2V716.8A128 128 0 0 1 332.8 844.8z m0-102.4A25.6 25.6 0 0 0 358.4 716.8v-153.6a25.6 25.6 0 0 0-25.6-25.6h-204.8A25.6 25.6 0 0 0 102.4 563.2V716.8a25.6 25.6 0 0 0 25.6 25.6h204.8zM768 640m-76.8 0a76.8 76.8 0 1 1 153.6 0 76.8 76.8 0 1 1-153.6 0Z"  horiz-adv-x="1024" />
      
      <glyph glyph-name="a-icon_jstd2x" unicode="&#59111;" d="M780.8 620.088889a236.088889 236.088889 0 1 0 0-472.177778v113.777778a122.311111 122.311111 0 1 1 0 244.622222v113.777778zM243.2 620.088889v-113.777778a122.311111 122.311111 0 1 1 0-244.622222v-113.777778a236.088889 236.088889 0 1 0 0 472.177778zM512 888.888889c173.454222 0 312.888889-146.432 312.888889-325.688889v-358.4c0-179.256889-139.434667-325.688889-312.888889-325.688889a56.888889 56.888889 0 0 0-6.656 113.379556L512-7.111111c109.340444 0 199.111111 94.264889 199.111111 211.911111v358.4c0 117.646222-89.770667 211.911111-199.111111 211.911111S312.888889 680.846222 312.888889 563.2v-358.4a56.888889 56.888889 0 0 0-113.777778 0v358.4C199.111111 742.456889 338.545778 888.888889 512 888.888889z"  horiz-adv-x="1024" />
      
      <glyph glyph-name="a-icon_chuangkouguanli2x" unicode="&#59112;" d="M921.6 844.8a102.4 102.4 0 0 0 102.4-102.4v-716.8a102.4 102.4 0 0 0-102.4-102.4H150.5792a102.4 102.4 0 0 0-102.4 102.4V742.4a102.4 102.4 0 0 0 102.4 102.4H921.6z m0-102.4H150.5792v-716.8H921.6V742.4zM150.5792 844.8H921.6a102.4 102.4 0 0 0 102.4-102.4v-114.432H48.1792V742.4a102.4 102.4 0 0 0 102.4 102.4zM601.6 755.2m-51.2 0a51.2 51.2 0 1 1 102.4 0 51.2 51.2 0 1 1-102.4 0ZM755.2 755.2m-51.2 0a51.2 51.2 0 1 1 102.4 0 51.2 51.2 0 1 1-102.4 0ZM908.8 755.2m-51.2 0a51.2 51.2 0 1 1 102.4 0 51.2 51.2 0 1 1-102.4 0Z"  horiz-adv-x="1024" />
      
      <glyph glyph-name="a-icon_mrtb2x" unicode="&#59113;" d="M0 896m180.705882 0l662.588236 0q180.705882 0 180.705882-180.705882l0-662.588236q0-180.705882-180.705882-180.705882l-662.588236 0q-180.705882 0-180.705882 180.705882l0 662.588236q0 180.705882 180.705882 180.705882ZM268.047059 248.470588m15.058823 0l64.752942 0q15.058824 0 15.058823-15.058823l0-64.752941q0-15.058824-15.058823-15.058824l-64.752942 0q-15.058824 0-15.058823 15.058824l0 64.752941q0 15.058824 15.058823 15.058823ZM347.858824 278.588235H283.105882A45.176471 45.176471 0 0 1 237.929412 233.411765v-64.752941a45.176471 45.176471 0 0 1 45.17647-45.176471h64.752942a45.176471 45.176471 0 0 1 45.17647 45.176471V233.411765a45.176471 45.176471 0 0 1-45.17647 45.17647z m-15.058824-60.235294v-34.605176H298.164706V218.352941h34.635294zM661.082353 248.470588m15.058823 0l64.752942 0q15.058824 0 15.058823-15.058823l0-64.752941q0-15.058824-15.058823-15.058824l-64.752942 0q-15.058824 0-15.058823 15.058824l0 64.752941q0 15.058824 15.058823 15.058823ZM740.894118 278.588235h-64.752942a45.176471 45.176471 0 0 1-45.17647-45.17647v-64.752941a45.176471 45.176471 0 0 1 45.17647-45.176471h64.752942a45.176471 45.176471 0 0 1 45.17647 45.176471V233.411765a45.176471 45.176471 0 0 1-45.17647 45.17647z m-15.058824-60.235294v-34.605176h-34.635294V218.352941h34.635294zM464.564706 248.470588m15.058823 0l64.752942 0q15.058824 0 15.058823-15.058823l0-64.752941q0-15.058824-15.058823-15.058824l-64.752942 0q-15.058824 0-15.058823 15.058824l0 64.752941q0 15.058824 15.058823 15.058823ZM544.376471 278.588235h-64.752942a45.176471 45.176471 0 0 1-45.17647-45.17647v-64.752941a45.176471 45.176471 0 0 1 45.17647-45.176471h64.752942a45.176471 45.176471 0 0 1 45.17647 45.176471V233.411765a45.176471 45.176471 0 0 1-45.17647 45.17647z m-15.088942-60.235294v-34.605176H494.682353V218.352941h34.605176zM648.282353 387.011765a90.352941 90.352941 0 0 0 90.352941-90.352941v-21.564236a30.117647 30.117647 0 0 0-60.235294 0V296.658824a30.117647 30.117647 0 0 1-30.117647 30.117647h-279.792941a30.117647 30.117647 0 0 1-30.117647-30.117647v-21.564236a30.117647 30.117647 0 0 0-60.235294 0V296.658824a90.352941 90.352941 0 0 0 90.352941 90.352941h279.792941zM542.117647 438.091294V384h-60.235294V438.091294zM445.741176 627.952941h132.517648a15.058824 15.058824 0 0 0 15.058823-15.058823v-132.517647a15.058824 15.058824 0 0 0-15.058823-15.058824H445.741176a15.058824 15.058824 0 0 0-15.058823 15.058824V612.894118a15.058824 15.058824 0 0 0 15.058823 15.058823zM578.258824 658.070588H445.741176A45.176471 45.176471 0 0 1 400.564706 612.894118v-132.517647a45.176471 45.176471 0 0 1 45.17647-45.176471h132.517648a45.176471 45.176471 0 0 1 45.17647 45.176471V612.894118A45.176471 45.176471 0 0 1 578.258824 658.070588z m-15.058824-60.235294v-102.369882H460.8V597.835294h102.4z"  horiz-adv-x="1024" />
      
      <glyph glyph-name="a-icon_zzjg2x" unicode="&#59114;" d="M227.555556 184.888889H92.444444a85.333333 85.333333 0 0 1-85.333333-85.333333v-135.111112a85.333333 85.333333 0 0 1 85.333333-85.333333H227.555556a85.333333 85.333333 0 0 1 85.333333 85.333333V99.555556A85.333333 85.333333 0 0 1 227.555556 184.888889z m-28.501334-113.777778v-78.222222H120.888889V71.111111h78.165333zM931.555556 184.888889H796.444444a85.333333 85.333333 0 0 1-85.333333-85.333333v-135.111112a85.333333 85.333333 0 0 1 85.333333-85.333333h135.111112a85.333333 85.333333 0 0 1 85.333333 85.333333V99.555556a85.333333 85.333333 0 0 1-85.333333 85.333333z m-28.501334-113.777778v-78.222222H824.888889V71.111111h78.165333zM579.584 184.888889H444.416a85.333333 85.333333 0 0 1-85.333333-85.333333v-135.111112a85.333333 85.333333 0 0 1 85.333333-85.333333h135.111111a85.333333 85.333333 0 0 1 85.333333 85.333333V99.555556a85.333333 85.333333 0 0 1-85.333333 85.333333z m-28.444444-113.777778v-78.222222H472.860444V71.111111h78.279112zM750.250667 389.688889a170.666667 170.666667 0 0 0 170.666666-170.666667v-40.732444a56.888889 56.888889 0 0 0-113.777777 0V219.022222a56.888889 56.888889 0 0 1-56.888889 56.888889H273.749333a56.888889 56.888889 0 0 1-56.888889-56.888889v-40.732444a56.888889 56.888889 0 0 0-113.777777 0V219.022222a170.666667 170.666667 0 0 0 170.666666 170.666667h476.444445zM568.888889 496.469333V332.8H455.111111V496.469333zM615.139556 888.888889H408.860444a113.777778 113.777778 0 0 1-113.777777-113.777778V568.888889a113.777778 113.777778 0 0 1 113.777777-113.777778h206.222223a113.777778 113.777778 0 0 1 113.777777 113.777778V775.111111a113.777778 113.777778 0 0 1-113.777777 113.777778z m0-113.777778V568.888889H408.860444V775.111111h206.222223z"  horiz-adv-x="1024" />
      
      <glyph glyph-name="a-icon_wblxr2x" unicode="&#59115;" d="M357.660444 824.888889a56.888889 56.888889 0 1 0 0-113.777778c-164.408889 0-236.771556-72.419556-236.771555-236.771555a56.888889 56.888889 0 1 0-113.777778 0c0 227.214222 123.335111 350.549333 350.549333 350.549333zM896 286.549333a56.888889 56.888889 0 0 0 56.888889-56.888889c0-227.214222-123.335111-350.549333-350.549333-350.549333a56.888889 56.888889 0 1 0 0 113.777778c164.408889 0 236.771556 72.419556 236.771555 236.771555a56.888889 56.888889 0 0 0 56.888889 56.888889zM839.111111 824.888889h-206.222222a113.777778 113.777778 0 0 1-113.777778-113.777778v-206.222222a113.777778 113.777778 0 0 1 113.777778-113.777778h206.222222a113.777778 113.777778 0 0 1 113.777778 113.777778V711.111111a113.777778 113.777778 0 0 1-113.777778 113.777778z m0-113.777778v-206.222222h-206.222222V711.111111h206.222222zM327.111111 312.888889H120.888889a113.777778 113.777778 0 0 1-113.777778-113.777778v-206.222222a113.777778 113.777778 0 0 1 113.777778-113.777778H327.111111a113.777778 113.777778 0 0 1 113.777778 113.777778V199.111111a113.777778 113.777778 0 0 1-113.777778 113.777778z m0-113.777778v-206.222222H120.888889V199.111111H327.111111z"  horiz-adv-x="1024" />
      
      <glyph glyph-name="a-icon_Video2x" unicode="&#59116;" d="M32 691.968A44.8 44.8 0 0 0 77.696 736h639.296a44.8 44.8 0 0 0 45.632-44.032v-615.936a44.8 44.8 0 0 0-45.632-44.032H77.632A44.8 44.8 0 0 0 32 76.032V691.968zM716.992 768H77.632C35.072 768 0 734.272 0 691.968v-615.936c0-42.24 35.008-76.032 77.696-76.032h639.296c42.624 0 77.632 33.728 77.632 76.032V691.968c0 42.24-35.008 76.032-77.632 76.032z m0-64c7.808 0 13.632-5.632 13.632-12.032v-615.936c0-6.4-5.824-12.032-13.632-12.032H77.632c-7.744 0-13.632 5.632-13.632 12.032V691.968C64 698.368 69.888 704 77.696 704h639.296zM809.344 494.016L992 625.92v-505.984l-182.656 132.032zM973.248 651.968l-182.656-132.032a32 32 0 0 1-13.248-25.92v-241.984a32 32 0 0 1 13.248-25.984l182.656-131.968a32 32 0 0 1 50.752 25.92V625.984a32 32 0 0 1-50.752 25.984zM960 563.456v-380.8l-118.656 85.76v209.28l118.656 85.76zM128 576.576a64 64 0 1 1 128 0 64 64 0 1 1-128 0Z"  horiz-adv-x="1024" />
      
      <glyph glyph-name="a-icon_yuyin2x" unicode="&#59117;" d="M330.112 793.6a51.2 51.2 0 0 0 44.8-26.368l62.592-112.768a51.2 51.2 0 0 0 1.024-47.808l-60.352-120.64s17.472-89.92 90.688-163.072c73.152-73.152 162.752-90.368 162.752-90.368l120.64 60.352a51.2 51.2 0 0 0 47.808-1.088l113.088-62.848a51.2 51.2 0 0 0 26.368-44.8v-129.856c0-66.112-61.44-113.92-124.16-92.8-128.64 43.52-328.512 126.144-455.104 252.8-126.72 126.656-209.344 326.4-252.8 455.168-21.12 62.72 26.624 124.096 92.8 124.096h129.856zM330.112 825.6h-129.92C112 825.6 49.088 742.528 77.184 659.264c63.872-189.184 149.696-356.736 260.48-467.584 110.784-110.72 278.4-196.608 467.584-260.48 83.2-28.032 166.336 34.88 166.336 123.136v129.92a83.2 83.2 0 0 1-42.816 72.704l-113.088 62.848-8.192 4.032a83.2 83.2 0 0 1-69.504-2.304l-110.208-55.104-3.712 1.088a325.312 325.312 0 0 0-101.12 50.944 291.84 291.84 0 0 0-58.88 58.88 327.808 327.808 0 0 0-43.712 80.064l-2.816 7.744-4.352 13.312-1.088 3.712 55.104 110.208a83.2 83.2 0 0 1-1.664 77.568l-62.656 112.832A83.2 83.2 0 0 1 330.112 825.6z m0-64a19.2 19.2 0 0 0 16.768-9.856l62.656-112.832a19.2 19.2 0 0 0 0.384-17.92l-60.352-120.64a32 32 0 0 1-2.816-20.48c7.04-36.224 26.88-88.448 65.984-140.8a356.48 356.48 0 0 1 71.68-71.808c52.48-39.36 104.832-59.136 141.184-66.112a32 32 0 0 1 20.288 2.816l120.704 60.352a19.2 19.2 0 0 0 17.92-0.448l113.088-62.848a19.2 19.2 0 0 0 9.92-16.832v-129.856c0-45.248-40.96-76.288-81.92-62.464-180.608 60.992-340.48 142.848-442.752 245.12C280.64 339.2 198.72 499.072 137.728 679.68c-13.76 40.96 17.28 81.856 62.528 81.856h129.856z"  horiz-adv-x="1024" />
      
      <glyph glyph-name="a-icon_xzzx2x" unicode="&#59118;" d="M294.4 147.911111a56.888889 56.888889 0 0 0-56.888889 56.888889V662.471111a56.888889 56.888889 0 1 0 113.777778 0v-400.782222h442.311111a56.888889 56.888889 0 0 0 56.490667-50.232889l0.398222-6.656a56.888889 56.888889 0 0 0-56.888889-56.888889H294.4z"  horiz-adv-x="1024" />
      
      <glyph glyph-name="a-icon_jiaotongju2x" unicode="&#59119;" d="M0 896m180.705882 0l662.588236 0q180.705882 0 180.705882-180.705882l0-662.588236q0-180.705882-180.705882-180.705882l-662.588236 0q-180.705882 0-180.705882 180.705882l0 662.588236q0 180.705882 180.705882 180.705882ZM623.073882 624.941176a120.470588 120.470588 0 0 0 119.386353-104.508235l11.65553-87.04c34.575059-15.631059 58.729412-50.356706 57.856-90.142117v-127.156706c1.204706-3.553882 1.204706-5.903059 1.204706-8.252236v-34.153411c0-16.504471-14.275765-30.629647-30.930824-30.629647h-70.174118c-16.685176 0-30.960941 14.155294-30.960941 30.629647v16.474353h-308.103529v-16.474353c0-16.504471-14.275765-30.629647-30.930824-30.629647H271.872C255.216941 143.058824 240.941176 157.214118 240.941176 173.688471v169.562353c0 35.328 20.239059 67.132235 48.790589 84.811294l10.300235 3.072 11.956706 89.328941A120.470588 120.470588 0 0 0 431.375059 624.941176h191.698823z m-286.750117-283.527529c-20.992 0-38.189176-17.016471-38.189177-37.797647 0-17.950118 12.408471-33.069176 29.605647-36.864h2.861177c1.897412 0 3.794824 0 5.722353-0.933647 20.992 0 38.189176 17.016471 38.189176 37.797647s-17.167059 37.797647-38.189176 37.797647z m381.801411 0c-20.992 0-38.159059-17.016471-38.159058-37.797647s16.203294-36.864 37.225411-37.797647c1.897412 0.933647 3.794824 0.933647 5.722353 0.933647h3.794824c17.197176 3.794824 29.605647 18.913882 29.605647 36.864 0 20.781176-17.167059 37.797647-38.189177 37.797647z m-110.531764-28.340706h-160.768a15.058824 15.058824 0 1 1 0-30.117647h160.798117a15.058824 15.058824 0 1 1 0 30.117647z m9.908706 243.952941h-175.525647a60.235294 60.235294 0 0 1-59.723295-52.495058l-8.914823-68.608h313.524706l-9.728 69.210352a60.235294 60.235294 0 0 1-59.632941 51.892706z"  horiz-adv-x="1024" />
      
      <glyph glyph-name="a-icon_selectedbs_sqb2x" unicode="&#59072;" d="M51.2 844.8m102.4 0l716.8 0q102.4 0 102.4-102.4l0-716.8q0-102.4-102.4-102.4l-716.8 0q-102.4 0-102.4 102.4l0 716.8q0 102.4 102.4 102.4ZM204.8 281.6m51.2 0l460.8 0q51.2 0 51.2-51.2l0 0q0-51.2-51.2-51.2l-460.8 0q-51.2 0-51.2 51.2l0 0q0 51.2 51.2 51.2ZM204.8 537.6m51.2 0l204.8 0q51.2 0 51.2-51.2l0 0q0-51.2-51.2-51.2l-204.8 0q-51.2 0-51.2 51.2l0 0q0 51.2 51.2 51.2Z"  horiz-adv-x="1024" />
      
      <glyph glyph-name="a-icon_selectedbs_da2x" unicode="&#59076;" d="M51.6096 650.24L216.064 814.7456A102.4 102.4 0 0 0 288.512 844.8h447.1808a102.4 102.4 0 0 0 72.192-29.8496L973.4656 650.24a5.12 5.12 0 0 0-3.6352-8.704H55.2448a5.12 5.12 0 0 0-3.6352 8.704zM51.2 640h921.6v-614.4a102.4 102.4 0 0 0-102.4-102.4H153.6a102.4 102.4 0 0 0-102.4 102.4V640zM640 435.2a51.2 51.2 0 1 0 0-102.4h-256a51.2 51.2 0 1 0 0 102.4h256z"  horiz-adv-x="1024" />
      
      <glyph glyph-name="a-icon_selectedbs_qs2x" unicode="&#59087;" d="M921.6 51.2a76.8 76.8 0 0 0 0-153.6H102.4a76.8 76.8 0 0 0 0 153.6h819.2zM51.2 306.4832V153.6a25.6 25.6 0 0 1 25.6-25.6h153.9072a51.2 51.2 0 0 1 36.1984 15.0016l516.096 516.352c19.968 19.968 19.968 52.3776 0 72.3968l-128 128a51.1488 51.1488 0 0 1-72.3456 0l-516.5056-517.12a51.2 51.2 0 0 1-14.9504-36.1472zM499.3024 779.6224l203.52-202.1376-54.1184-54.4768-203.52 202.1376z"  horiz-adv-x="1024" />
      
      <glyph glyph-name="a-qs_nor2x" unicode="&#59088;" d="M921.6 51.2a76.8 76.8 0 0 0 0-153.6H102.4a76.8 76.8 0 0 0 0 153.6h819.2zM51.2 306.4832V153.6a25.6 25.6 0 0 1 25.6-25.6h153.9072a51.2 51.2 0 0 1 36.1984 15.0016l516.096 516.352c19.968 19.968 19.968 52.3776 0 72.3968l-128 128a51.1488 51.1488 0 0 1-72.3456 0l-516.5056-517.12a51.2 51.2 0 0 1-14.9504-36.1472zM514.9184 793.6l203.52-202.1376-54.1184-54.4768L460.8 739.1232z"  horiz-adv-x="1024" />
      
      <glyph glyph-name="a-icon_selectedbs_sq2x" unicode="&#59090;" d="M671.8976 770.048L569.9072 872.0384a81.92 81.92 0 0 1-115.8144 0L352.1024 770.048H207.872a81.92 81.92 0 0 1-81.92-81.92v-144.2304L23.9616 441.9072a81.92 81.92 0 0 1 0-115.8144l101.9904-101.9904v-144.2304a81.92 81.92 0 0 1 81.92-81.92h144.2304l101.9904-101.9904a81.92 81.92 0 0 1 115.8144 0l101.9904 101.9904h144.2304a81.92 81.92 0 0 1 81.92 81.92v144.2304l101.9904 101.9904a81.92 81.92 0 0 1 0 115.8144L898.048 543.8976V688.128a81.92 81.92 0 0 1-81.92 81.92h-144.2304zM663.552 513.28a51.2 51.2 0 1 0 72.3968-72.3968L501.248 206.2336a51.2 51.2 0 0 0-72.3968 0l-117.2992 117.2992a51.2 51.2 0 1 0 72.3968 72.448l81.1008-81.152 198.5024 198.4512z"  horiz-adv-x="1024" />
      
      <glyph glyph-name="a-fgzc_icon2x" unicode="&#59091;" d="M862.646857 48.713143c17.993143 0 32.621714-14.701714 32.621714-32.841143v-19.163429c0-5.339429 3.291429-10.093714 8.338286-11.776A118.857143 118.857143 0 0 0 985.014857-128H73.142857c0 58.514286 42.422857 108.397714 99.913143 117.394286a12.434286 12.434286 0 0 1 10.459429 12.288v14.189714c0 18.139429 14.628571 32.841143 32.621714 32.841143h646.582857z m-37.888-73.142857H252.562286l-2.925715-7.826286c-2.267429-5.266286-5.12-10.24-8.265142-14.921143L235.227429-54.857143h604.16l-1.462858 1.755429a85.284571 85.284571 0 0 0-11.702857 23.405714l-1.462857 5.12zM575.341714 840.777143l-0.585143-0.512a64.073143 64.073143 0 0 1-19.163428-45.494857l0.585143-8.411429 0.365714-1.974857-235.885714-228.278857-3.145143 0.585143a63.268571 63.268571 0 0 1-53.028572-18.066286l-1.901714-2.048A63.561143 63.561143 0 0 1 263.314286 447.634286l203.337143-204.580572c24.868571-24.868571 65.097143-24.868571 89.892571 0l1.682286 1.755429 5.485714 6.363428a63.049143 63.049143 0 0 1 11.922286 46.08l-0.219429 1.243429 55.588572 50.322286 270.848-292.498286a91.428571 91.428571 0 0 1 132.022857-2.194286c17.554286 17.554286 27.062857 41.545143 26.697143 66.413715l-0.804572 10.605714a92.013714 92.013714 0 0 1-28.306286 54.930286l-289.645714 271.433142 69.851429 70.217143 2.56-0.512a63.634286 63.634286 0 0 1 53.394285 18.432 64.073143 64.073143 0 0 1 0.877715 90.550857L665.161143 840.704A63.414857 63.414857 0 0 1 575.341714 840.777143z m60.196572-73.947429l159.158857-160.109714-0.731429-0.146286a36.425143 36.425143 0 0 1-16.530285-9.581714l-114.102858-114.614857a36.571429 36.571429 0 0 1 0.950858-52.516572l317.147428-297.179428a18.944 18.944 0 0 0-12.8-32.621714 18.285714 18.285714 0 0 0-13.092571 5.924571L660.114286 425.033143a36.571429 36.571429 0 0 1-51.346286 2.267428l-101.668571-92.013714-4.534858-4.973714a36.278857 36.278857 0 0 1-5.851428-11.702857l-0.438857-1.536-159.158857 160.182857a35.328 35.328 0 0 1 16.822857 9.142857l271.579428 262.948571a36.425143 36.425143 0 0 1 9.874286 16.603429l0.146286 0.877714zM617.618286 701.878857a36.571429 36.571429 0 1 0 51.712-51.712L568.246857 549.010286a36.571429 36.571429 0 1 0-51.712 51.712l101.083429 101.156571zM125.659429 420.498286a36.571429 36.571429 0 0 0 51.712-0.146286l130.194285-130.925714a36.571429 36.571429 0 0 0-51.931428-51.565715l-130.194286 130.925715a36.571429 36.571429 0 0 0 0.219429 51.712zM273.993143 208.164571a36.571429 36.571429 0 0 0 15.213714-71.533714l-190.464-40.521143a36.571429 36.571429 0 1 0-15.213714 71.533715l190.464 40.521142z"  horiz-adv-x="1097" />
      
      <glyph glyph-name="a-icon_selectedbs_lx2x" unicode="&#59093;" d="M337.432381 762.733714H96.889905A48.128 48.128 0 0 1 48.761905 714.654476v-240.591238c0-26.575238 21.552762-48.128 48.128-48.128H337.432381a48.128 48.128 0 0 1 48.128 48.128V714.654476a48.128 48.128 0 0 1-48.128 48.079238zM337.432381 811.495619H96.889905C43.349333 811.495619 0 768.097524 0 714.654476v-240.591238C0 420.571429 43.398095 377.173333 96.889905 377.173333H337.432381c53.49181 0 96.889905 43.398095 96.889905 96.889905V714.654476c0 53.49181-43.398095 96.841143-96.889905 96.841143z m-0.682667-97.523809v-239.225905H97.52381V713.97181h239.225904zM337.432381 257.560381H96.889905A48.128 48.128 0 0 1 48.761905 209.432381v-240.542476c0-26.575238 21.552762-48.128 48.128-48.128H337.432381a48.128 48.128 0 0 1 48.128 48.128V209.432381a48.128 48.128 0 0 1-48.128 48.128zM337.432381 306.322286H96.889905C43.349333 306.322286 0 262.92419 0 209.432381v-240.542476C0-84.650667 43.398095-128 96.889905-128H337.432381c53.49181 0 96.889905 43.398095 96.889905 96.889905V209.432381c0 53.49181-43.398095 96.889905-96.889905 96.889905z m-0.682667-97.52381V-30.47619H97.52381v239.225904h239.225904zM897.316571 623.518476l-145.798095 145.798095a41.252571 41.252571 0 0 1-58.319238 0l-145.798095-145.798095a41.252571 41.252571 0 0 1 0-58.319238l145.798095-145.798095c16.091429-16.091429 42.22781-16.091429 58.319238 0l145.798095 145.798095a41.252571 41.252571 0 0 1 0 58.319238zM931.84 657.993143l-145.846857 145.798095c-35.108571 35.108571-92.16 35.108571-127.268572 0l-145.798095-145.798095c-35.157333-35.108571-35.157333-92.16 0-127.268572l145.798095-145.798095c35.108571-35.157333 92.16-35.157333 127.268572 0l145.798095 145.798095c35.108571 35.108571 35.108571 92.16 0 127.268572z m-74.313143-63.634286l-135.168-135.168-135.168 135.168 135.168 135.168 135.168-135.168zM866.694095 257.560381H626.102857a48.128 48.128 0 0 1-48.079238-48.128v-240.542476c0-26.575238 21.504-48.128 48.079238-48.128h240.591238a48.128 48.128 0 0 1 48.128 48.128V209.432381a48.128 48.128 0 0 1-48.128 48.128zM866.694095 306.322286H626.102857c-53.49181 0-96.841143-43.398095-96.841143-96.889905v-240.542476c0-53.540571 43.398095-96.889905 96.841143-96.889905h240.591238c53.49181 0 96.889905 43.398095 96.889905 96.889905V209.432381c0 53.49181-43.398095 96.889905-96.889905 96.889905z m-0.682666-97.52381V-30.47619h-239.225905v239.225904h239.225905z"  horiz-adv-x="1024" />
      
      <glyph glyph-name="a-icon_xj2x" unicode="&#59098;" d="M650.56 883.776a48 48 0 0 0 43.2-27.072l68.096-140.544a48 48 0 1 0-86.4-41.856l-55.04 113.472H408.128l-54.976-113.472a48 48 0 0 0-58.048-24.704l-6.08 2.432A48 48 0 0 0 266.88 716.16L334.912 856.704a48 48 0 0 0 43.2 27.072h272.448zM309.952 743.232a48 48 0 1 0 0-96H156.224a48 48 0 0 1-48-48v-510.72c0-26.56 21.504-48 48-48h716.16a48 48 0 0 1 48 48v510.72a48 48 0 0 1-48 48H718.72a48 48 0 1 0 0 96h153.728a144 144 0 0 0 144-144v-510.72a144 144 0 0 0-144-144H156.224a144 144 0 0 0-144 144v510.72a144 144 0 0 0 144 144h153.728zM514.304 579.2C387.2 579.2 284.672 473.6 284.672 343.936c0-129.728 102.464-235.456 229.632-235.456s229.632 105.728 229.632 235.456c0 129.664-102.4 235.392-229.632 235.392z m0-96c73.472 0 133.632-62.08 133.632-139.328 0-77.376-60.16-139.456-133.632-139.456-73.472 0-133.632 62.08-133.632 139.456 0 77.312 60.16 139.392 133.632 139.392z"  horiz-adv-x="1024" />
      
      <glyph glyph-name="a-icon_default_sf2x" unicode="&#59099;" d="M870.4 742.4a153.6 153.6 0 0 0 153.6-153.6v-563.2a153.6 153.6 0 0 0-153.6-153.6H153.6a153.6 153.6 0 0 0-153.6 153.6V588.8a153.6 153.6 0 0 0 153.6 153.6h225.28v-28.2112a51.2 51.2 0 0 1 21.504-41.728l5.2736-3.2768 81.664-44.3392a51.2 51.2 0 0 1 49.2544 0.256l79.2576 43.9808a51.2 51.2 0 0 1 26.368 44.7488L642.1504 742.4H870.4zM460.8 110.6944c0-4.608 3.84-8.2944 8.5504-8.2944h392.448a8.3968 8.3968 0 0 1 8.5504 8.2944v9.8816a62.2592 62.2592 0 0 1-9.216 34.304 80.7424 80.7424 0 0 1-26.7264 26.624c-13.9264 8.8576-31.6416 15.2576-53.0944 19.1488-0.1536 0-16.0768 2.0992-32.3584 6.2464-28.3648 7.2704-30.8736 13.6704-30.8736 13.7216a8.192 8.192 0 0 1-0.7168 1.8432 72.4992 72.4992 0 0 0 0.3072 17.7664c2.7648 30.6176 19.2 48.7424 32.4096 63.2832 4.1472 4.608 8.0896 8.9088 11.1104 13.1584 13.1072 18.3808 14.336 39.2192 14.336 40.4992a21.5552 21.5552 0 0 1-0.9216 6.7584 20.6336 20.6336 0 0 1-5.4784 8.2944 30.976 30.976 0 0 0-1.1776 1.3312c-0.1536 0.1536-0.512 0.512-0.2048 2.56 1.1776 7.68 1.8944 13.9776 2.2016 20.0704 0.6144 10.752 1.024 26.9312-1.6896 42.6496a65.024 65.024 0 0 1-1.8944 8.9088 69.9392 69.9392 0 0 1-14.2336 27.6992c-1.1264 1.2288-28.5696 30.208-108.3392 36.096a259.5328 259.5328 0 0 1-32.6144-0.1536 47.3088 47.3088 0 0 1-9.472-1.1776c-8.192-2.0992-10.3936-7.3216-11.008-10.24-0.9216-4.864 0.768-8.6016 1.8432-11.1104 0.1536-0.3584 0.3584-0.8192 0-1.9968a37.4784 37.4784 0 0 0-7.68-7.8848c-0.8704-0.7168-20.8896-17.92-22.016-40.448-2.9184-17.152-2.7136-43.8272 0.8192-62.2592 0.2048-1.024 0.512-2.56 0-3.584-3.7888-3.3792-8.0384-7.168-8.0384-15.9232 0.0512-0.8704 1.28-21.7088 14.336-40.0896 3.072-4.1984 6.9632-8.5504 11.1104-13.1584 13.2096-14.5408 29.696-32.6656 32.4608-63.2832 1.0752-12.0832 0.512-16.5888 0.256-17.7664a8.192 8.192 0 0 1-0.7168-1.792c0-0.1024-2.4576-6.5024-30.72-13.7216-16.2816-4.1472-32.3072-6.2976-32.768-6.3488-20.8896-3.5328-38.5024-9.728-52.4288-18.5856a80.896 80.896 0 0 1-26.7264-26.624c-9.984-16.7424-9.728-31.9488-9.5744-34.7648v-9.9328zM435.2 896h153.6a25.6 25.6 0 0 0 25.6-25.6v-147.5584a51.2 51.2 0 0 0-28.3136-45.7728l-51.2-25.6a51.2 51.2 0 0 0-45.7728 0l-51.2 25.6A51.2 51.2 0 0 0 409.6 722.8416V870.4a25.6 25.6 0 0 0 25.6 25.6zM320 222.72a43.52 43.52 0 1 0 0-87.04H204.8a43.52 43.52 0 1 0 0 87.04h115.2zM409.6 427.52a43.52 43.52 0 1 0 0-87.04H204.8a43.52 43.52 0 1 0 0 87.04h204.8z"  horiz-adv-x="1024" />
      
      <glyph glyph-name="a-qkl_icon2x" unicode="&#59100;" d="M564.0192 751.752533a34.133333 34.133333 0 0 0 46.421333 13.038934l291.976534-164.181334a34.133333 34.133333 0 0 0 17.408-29.764266v-350.344534a34.133333 34.133333 0 1 0-68.266667 0v330.410667L576.9216 705.194667a34.133333 34.133333 0 0 0-15.496533 40.96l2.525866 5.5296z m-150.459733 13.038934a34.133333 34.133333 0 0 0 33.450666-59.528534L172.4416 550.843733v-330.3424a34.133333 34.133333 0 0 0-27.989333-33.5872l-6.144-0.546133a34.133333 34.133333 0 0 0-34.133334 34.133333V570.845867a34.133333 34.133333 0 0 0 17.408 29.764266l291.976534 164.181334z m385.297066-623.957334a34.133333 34.133333 0 0 0 33.450667-59.528533l-303.581867-170.8032a34.133333 34.133333 0 0 0-33.450666 0l-303.581867 170.8032a34.133333 34.133333 0 1 0 33.450667 59.460267l286.788266-161.314134 286.9248 161.314134zM494.7968 553.642667L354.645333 471.8592a34.133333 34.133333 0 0 1-16.930133-29.4912v-163.4304a34.133333 34.133333 0 0 1 16.930133-29.4912l140.151467-81.783467a34.133333 34.133333 0 0 1 34.4064 0L669.354667 249.514667a34.133333 34.133333 0 0 1 16.930133 29.4912V442.368a34.133333 34.133333 0 0 1-16.930133 29.4912L529.2032 553.642667a34.133333 34.133333 0 0 1-34.4064 0z m-88.746667-130.798934l105.8816 61.8496 106.018134-61.8496v-124.3136L512 236.7488l-105.949867 61.781333v124.245334zM512 721.7152a34.133333 34.133333 0 0 0 34.133333-34.133333v-163.4304a34.133333 34.133333 0 1 0-68.266666 0V687.581867a34.133333 34.133333 0 0 0 34.133333 34.133333zM622.523733 307.541333a34.133333 34.133333 0 0 0 46.557867 12.6976l163.4304-93.457066a34.133333 34.133333 0 0 0-33.860267-59.255467L635.221333 260.9152a34.133333 34.133333 0 0 0-12.6976 46.626133zM354.986667 320.238933a34.133333 34.133333 0 0 0 33.792-59.323733L225.348267 167.594667a34.133333 34.133333 0 1 0-33.860267 59.255466l163.4304 93.457067zM512 861.866667a104.174933 104.174933 0 1 1 0-208.418134A104.174933 104.174933 0 0 1 512 861.866667z m0-68.266667a35.908267 35.908267 0 1 0 0-71.8848 35.908267 35.908267 0 0 0 0 71.8848zM138.308267 254.634667a104.174933 104.174933 0 1 1 0-208.349867 104.174933 104.174933 0 0 1 0 208.349867z m0-68.266667a35.908267 35.908267 0 1 0 0-71.816533 35.908267 35.908267 0 0 0 0 71.816533zM885.691733 254.634667a104.174933 104.174933 0 1 1 0-208.349867 104.174933 104.174933 0 0 1 0 208.349867z m0-68.266667a35.908267 35.908267 0 1 0 0-71.816533 35.908267 35.908267 0 0 0 0 71.816533z"  horiz-adv-x="1024" />
      
      <glyph glyph-name="a-sm_icon2x" unicode="&#59068;" d="M512 896a512 512 0 1 0 0-1024A512 512 0 0 0 512 896z m0-109.714286a402.285714 402.285714 0 1 1 0-804.571428 402.285714 402.285714 0 0 1 0 804.571428zM514.340571 654.628571a49.737143 49.737143 0 0 0 49.737143-53.394285l-21.796571-298.569143a24.649143 24.649143 0 0 0-24.649143-22.893714 25.088 25.088 0 0 0-25.014857 22.820571l-26.989714 298.715429a48.932571 48.932571 0 0 0 48.713142 53.321142zM514.340571 683.885714l-7.021714-0.292571a78.189714 78.189714 0 0 1-70.802286-84.918857l26.989715-298.715429a54.345143 54.345143 0 0 1 54.125714-49.444571 53.906286 53.906286 0 0 1 53.833143 50.029714l21.942857 302.153143v2.194286a78.994286 78.994286 0 0 1-78.994286 78.994285z m-0.877714-58.514285h0.877714a20.48 20.48 0 0 0 20.48-20.48v-1.536l-17.846857-245.394286-22.235428 245.979428a19.675429 19.675429 0 0 0 13.385143 20.48L513.462857 625.371429zM448 201.142857m65.828571 0l0 0q65.828571 0 65.828572-65.828571l0 0q0-65.828571-65.828572-65.828572l0 0q-65.828571 0-65.828571 65.828572l0 0q0 65.828571 65.828571 65.828571Z"  horiz-adv-x="1024" />
      
      <glyph glyph-name="a-da_nor2x" unicode="&#59069;" d="M51.6096 650.24L216.064 814.7456A102.4 102.4 0 0 0 288.512 844.8h447.1808a102.4 102.4 0 0 0 72.192-29.8496L973.4656 650.24a5.12 5.12 0 0 0-3.6352-8.704H55.2448a5.12 5.12 0 0 0-3.6352 8.704zM51.2 640h921.6v-614.4a102.4 102.4 0 0 0-102.4-102.4H153.6a102.4 102.4 0 0 0-102.4 102.4V640zM640 435.2a51.2 51.2 0 1 0 0-102.4h-256a51.2 51.2 0 1 0 0 102.4h256z"  horiz-adv-x="1024" />
      
      <glyph glyph-name="a-zz_nor2x" unicode="&#59070;" d="M301.5168 657.0496L369.7664 793.6h273.1008l68.2496-136.5504zM642.8672 844.8H369.7664a51.2 51.2 0 0 1-45.7728-28.3136L255.6928 679.9872a51.2 51.2 0 0 1 45.824-74.1376h409.6a51.2 51.2 0 0 1 45.7728 74.1376L688.64 816.4864A51.2 51.2 0 0 1 642.8672 844.8z m-31.744-102.4l17.1008-34.0992H384.3584L401.408 742.4h209.7664zM51.2 657.0496m76.8 0l756.6336 0q76.8 0 76.8-76.8l0-529.0496q0-76.8-76.8-76.8l-756.6336 0q-76.8 0-76.8 76.8l0 529.0496q0 76.8 76.8 76.8ZM884.6336 708.2496H128a128 128 0 0 1-128-128V51.2A128 128 0 0 1 128-76.8h756.6336a128 128 0 0 1 128 128V580.2496a128 128 0 0 1-128 128z m0-102.4a25.6 25.6 0 0 0 25.6-25.6V51.2a25.6 25.6 0 0 0-25.6-25.6H128a25.6 25.6 0 0 0-25.6 25.6V580.2496a25.6 25.6 0 0 0 25.6 25.6h756.6336zM506.3168 133.6832a182.0672 182.0672 0 1 1 0 364.0832 182.0672 182.0672 0 0 1 0-364.032zM506.3168 536.1664a220.4672 220.4672 0 1 1 0-440.832 220.4672 220.4672 0 0 1 0 440.832z m0-76.8a143.6672 143.6672 0 1 0 0-287.232 143.6672 143.6672 0 0 0 0 287.232z"  horiz-adv-x="1024" />
      
      <glyph glyph-name="a-icon_sbk2x" unicode="&#59071;" d="M1017.1904 424.0896c-11.8272-5.1712-31.9488 13.6192-60.2624 58.88a612.9664 612.9664 0 0 1-84.224 97.7408l-77.312-451.072-122.5216 5.4272 78.4384 469.6064h90.8288c-82.0736 57.4976-178.0224 86.3744-275.2 82.8928-150.528 0-407.296-97.1264-407.296-300.8512 1.3312-88.0128 40.448-170.0864 105.3696-221.2864l33.28 60.7232a218.112 218.112 0 0 1 110.08-37.376c55.0912 0 99.3792 34.6624 99.3792 74.752 0 74.9568-151.3472 94.976-151.3472 222.208 0 77.3632 82.5344 117.4528 183.296 117.4528h186.88l-9.6768-46.7456s-53.3504-3.9424-91.0848-3.9424c-37.6832 0-97.1264-12.1856-97.1264-56.1664 0-101.6832 141.9776-108.6976 141.9776-230.0928 0-121.4464-157.1328-140.544-224.5632-140.544H318.6688a493.1072 493.1072 0 0 1 247.7056-68.3008c190.1568 0 320.3584 91.0336 391.3728 203.3664 27.4944 44.9024 49.8176 58.5728 58.0608 53.4016 8.2432-5.12 0-30.3616 0-30.3616-41.2672-125.952-194.8672-318.72-504.7296-318.72C201.1648-34.9184 0 189.7472 0 382.464c0 192.768 208.0768 420.4544 503.9104 420.4544 367.6672 0 508.5696-309.0432 517.9392-347.904 0 1.2288 7.168-25.4976-4.6592-30.9248z"  horiz-adv-x="1024" />
      
      <glyph glyph-name="a-sqb_nor2x" unicode="&#59073;" d="M51.2 844.8m102.4 0l716.8 0q102.4 0 102.4-102.4l0-716.8q0-102.4-102.4-102.4l-716.8 0q-102.4 0-102.4 102.4l0 716.8q0 102.4 102.4 102.4ZM204.8 281.6m51.2 0l460.8 0q51.2 0 51.2-51.2l0 0q0-51.2-51.2-51.2l-460.8 0q-51.2 0-51.2 51.2l0 0q0 51.2 51.2 51.2ZM204.8 537.6m51.2 0l204.8 0q51.2 0 51.2-51.2l0 0q0-51.2-51.2-51.2l-204.8 0q-51.2 0-51.2 51.2l0 0q0 51.2 51.2 51.2Z"  horiz-adv-x="1024" />
      
      <glyph glyph-name="a-yw_icon2x" unicode="&#59074;" d="M512.000366 895.999269c141.385042 0 269.38495-57.343959 362.056884-149.94275A510.390493 510.390493 0 0 0 1024 383.999634a510.390493 510.390493 0 0 0-149.94275-362.056884A510.390493 510.390493 0 0 0 512.000366-128a510.390493 510.390493 0 0 0-362.056885 149.94275A510.390493 510.390493 0 0 0 0.000731 383.999634c0 141.385042 57.343959 269.38495 149.94275 362.056885A510.390493 510.390493 0 0 0 512.000366 895.999269z m0-109.714208c-108.251351 0-209.40785-42.788541-284.525511-117.759916A400.603142 400.603142 0 0 1 109.714939 383.999634c0-108.251351 42.788541-209.40785 117.759916-284.525511A400.603142 400.603142 0 0 1 512.000366-18.285793c108.251351 0 209.40785 42.788541 284.525511 117.759916A400.603142 400.603142 0 0 1 914.285793 383.999634c0 108.251351-42.788541 209.40785-117.759916 284.525511A400.603142 400.603142 0 0 1 512.000366 786.285061zM510.53751 709.485116a177.737016 177.737016 0 0 0 67.730237-342.088898l-12.946277-4.754283 0.073143-35.693689a54.857104 54.857104 0 0 0-47.396537-54.345104l-7.460566-0.511999a54.857104 54.857104 0 0 0-54.857104 54.857103V408.868188a54.857104 54.857104 0 0 0 47.396538 54.345104l7.460566 0.512a68.022809 68.022809 0 1 1-67.583952 75.922231l-0.438857-7.899423a54.857104 54.857104 0 0 0-109.714207 0 177.737016 177.737016 0 0 0 177.737016 177.737016zM519.314646 84.114134a65.828524 65.828524 0 1 1 0 131.657049 65.828524 65.828524 0 0 1 0-131.657049z"  horiz-adv-x="1024" />
      
      <glyph glyph-name="a-icon_close2x" unicode="&#59075;" d="M113.379556 782.620444a56.888889 56.888889 0 0 0 80.440888 0l716.8-716.8a56.888889 56.888889 0 0 0-80.440888-80.440888l-716.8 716.8a56.888889 56.888889 0 0 0 0 80.440888zM830.179556 782.620444a56.888889 56.888889 0 0 0 80.440888-80.440888l-716.8-716.8a56.888889 56.888889 0 1 0-80.440888 80.440888l716.8 716.8z"  horiz-adv-x="1024" />
      
      <glyph glyph-name="a-icon_default_sq2x" unicode="&#59077;" d="M671.8976 770.048L569.9072 872.0384a81.92 81.92 0 0 1-115.8144 0L352.1024 770.048H207.872a81.92 81.92 0 0 1-81.92-81.92v-144.2304L23.9616 441.9072a81.92 81.92 0 0 1 0-115.8144l101.9904-101.9904v-144.2304a81.92 81.92 0 0 1 81.92-81.92h144.2304l101.9904-101.9904a81.92 81.92 0 0 1 115.8144 0l101.9904 101.9904h144.2304a81.92 81.92 0 0 1 81.92 81.92v144.2304l101.9904 101.9904a81.92 81.92 0 0 1 0 115.8144L898.048 543.8976V688.128a81.92 81.92 0 0 1-81.92 81.92h-144.2304zM663.552 513.28a51.2 51.2 0 1 0 72.3968-72.3968L501.248 206.2336a51.2 51.2 0 0 0-72.3968 0l-117.2992 117.2992a51.2 51.2 0 1 0 72.3968 72.448l81.1008-81.152 198.5024 198.4512z"  horiz-adv-x="1024" />
      
      <glyph glyph-name="a-icon_more2x" unicode="&#59078;" d="M156.444444 398.222222m-99.555555 0a99.555556 99.555556 0 1 1 199.111111 0 99.555556 99.555556 0 1 1-199.111111 0ZM497.777778 398.222222m-99.555556 0a99.555556 99.555556 0 1 1 199.111111 0 99.555556 99.555556 0 1 1-199.111111 0ZM867.555556 398.222222m-99.555556 0a99.555556 99.555556 0 1 1 199.111111 0 99.555556 99.555556 0 1 1-199.111111 0Z"  horiz-adv-x="1024" />
      
      <glyph glyph-name="a-sf_nor2x" unicode="&#59079;" d="M870.4 742.4a153.6 153.6 0 0 0 153.6-153.6v-563.2a153.6 153.6 0 0 0-153.6-153.6H153.6a153.6 153.6 0 0 0-153.6 153.6V588.8a153.6 153.6 0 0 0 153.6 153.6h225.28v-28.2112a51.2 51.2 0 0 1 21.504-41.728l5.2736-3.2768 81.664-44.3392a51.2 51.2 0 0 1 49.2544 0.256l79.2576 43.9808a51.2 51.2 0 0 1 26.368 44.7488L642.1504 742.4H870.4zM460.8 110.6944c0-4.608 3.84-8.2944 8.5504-8.2944h392.448a8.3968 8.3968 0 0 1 8.5504 8.2944v9.8816a62.2592 62.2592 0 0 1-9.216 34.304 80.7424 80.7424 0 0 1-26.7264 26.624c-13.9264 8.8576-31.6416 15.2576-53.0944 19.1488-0.1536 0-16.0768 2.0992-32.3584 6.2464-28.3648 7.2704-30.8736 13.6704-30.8736 13.7216a8.192 8.192 0 0 1-0.7168 1.8432 72.4992 72.4992 0 0 0 0.3072 17.7664c2.7648 30.6176 19.2 48.7424 32.4096 63.2832 4.1472 4.608 8.0896 8.9088 11.1104 13.1584 13.1072 18.3808 14.336 39.2192 14.336 40.4992a21.5552 21.5552 0 0 1-0.9216 6.7584 20.6336 20.6336 0 0 1-5.4784 8.2944 30.976 30.976 0 0 0-1.1776 1.3312c-0.1536 0.1536-0.512 0.512-0.2048 2.56 1.1776 7.68 1.8944 13.9776 2.2016 20.0704 0.6144 10.752 1.024 26.9312-1.6896 42.6496a65.024 65.024 0 0 1-1.8944 8.9088 69.9392 69.9392 0 0 1-14.2336 27.6992c-1.1264 1.2288-28.5696 30.208-108.3392 36.096a259.5328 259.5328 0 0 1-32.6144-0.1536 47.3088 47.3088 0 0 1-9.472-1.1776c-8.192-2.0992-10.3936-7.3216-11.008-10.24-0.9216-4.864 0.768-8.6016 1.8432-11.1104 0.1536-0.3584 0.3584-0.8192 0-1.9968a37.4784 37.4784 0 0 0-7.68-7.8848c-0.8704-0.7168-20.8896-17.92-22.016-40.448-2.9184-17.152-2.7136-43.8272 0.8192-62.2592 0.2048-1.024 0.512-2.56 0-3.584-3.7888-3.3792-8.0384-7.168-8.0384-15.9232 0.0512-0.8704 1.28-21.7088 14.336-40.0896 3.072-4.1984 6.9632-8.5504 11.1104-13.1584 13.2096-14.5408 29.696-32.6656 32.4608-63.2832 1.0752-12.0832 0.512-16.5888 0.256-17.7664a8.192 8.192 0 0 1-0.7168-1.792c0-0.1024-2.4576-6.5024-30.72-13.7216-16.2816-4.1472-32.3072-6.2976-32.768-6.3488-20.8896-3.5328-38.5024-9.728-52.4288-18.5856a80.896 80.896 0 0 1-26.7264-26.624c-9.984-16.7424-9.728-31.9488-9.5744-34.7648v-9.9328zM435.2 896h153.6a25.6 25.6 0 0 0 25.6-25.6v-147.5584a51.2 51.2 0 0 0-28.3136-45.7728l-51.2-25.6a51.2 51.2 0 0 0-45.7728 0l-51.2 25.6A51.2 51.2 0 0 0 409.6 722.8416V870.4a25.6 25.6 0 0 0 25.6 25.6zM204.8 179.2h115.2M320 222.72a43.52 43.52 0 1 0 0-87.04H204.8a43.52 43.52 0 1 0 0 87.04h115.2zM204.8 384h204.8M409.6 427.52a43.52 43.52 0 1 0 0-87.04H204.8a43.52 43.52 0 0 0 0 87.04h204.8z"  horiz-adv-x="1024" />
      
      <glyph glyph-name="a-icon_default_lx2x" unicode="&#59080;" d="M337.432381 762.733714H96.889905A48.128 48.128 0 0 1 48.761905 714.654476v-240.591238c0-26.575238 21.552762-48.128 48.128-48.128H337.432381a48.128 48.128 0 0 1 48.128 48.128V714.654476a48.128 48.128 0 0 1-48.128 48.079238zM337.432381 811.495619H96.889905C43.349333 811.495619 0 768.097524 0 714.654476v-240.591238C0 420.571429 43.398095 377.173333 96.889905 377.173333H337.432381c53.49181 0 96.889905 43.398095 96.889905 96.889905V714.654476c0 53.49181-43.398095 96.841143-96.889905 96.841143z m-0.682667-97.523809v-239.225905H97.52381V713.97181h239.225904zM337.432381 257.560381H96.889905A48.128 48.128 0 0 1 48.761905 209.432381v-240.542476c0-26.575238 21.552762-48.128 48.128-48.128H337.432381a48.128 48.128 0 0 1 48.128 48.128V209.432381a48.128 48.128 0 0 1-48.128 48.128zM337.432381 306.322286H96.889905C43.349333 306.322286 0 262.92419 0 209.432381v-240.542476C0-84.650667 43.398095-128 96.889905-128H337.432381c53.49181 0 96.889905 43.398095 96.889905 96.889905V209.432381c0 53.49181-43.398095 96.889905-96.889905 96.889905z m-0.682667-97.52381V-30.47619H97.52381v239.225904h239.225904zM897.316571 623.518476l-145.798095 145.798095a41.252571 41.252571 0 0 1-58.319238 0l-145.798095-145.798095a41.252571 41.252571 0 0 1 0-58.319238l145.798095-145.798095c16.091429-16.091429 42.22781-16.091429 58.319238 0l145.798095 145.798095a41.252571 41.252571 0 0 1 0 58.319238zM931.84 657.993143l-145.846857 145.798095c-35.108571 35.108571-92.16 35.108571-127.268572 0l-145.798095-145.798095c-35.157333-35.108571-35.157333-92.16 0-127.268572l145.798095-145.798095c35.108571-35.157333 92.16-35.157333 127.268572 0l145.798095 145.798095c35.108571 35.108571 35.108571 92.16 0 127.268572z m-74.313143-63.634286l-135.168-135.168-135.168 135.168 135.168 135.168 135.168-135.168zM866.694095 257.560381H626.102857a48.128 48.128 0 0 1-48.079238-48.128v-240.542476c0-26.575238 21.504-48.128 48.079238-48.128h240.591238a48.128 48.128 0 0 1 48.128 48.128V209.432381a48.128 48.128 0 0 1-48.128 48.128zM866.694095 306.322286H626.102857c-53.49181 0-96.841143-43.398095-96.841143-96.889905v-240.542476c0-53.540571 43.398095-96.889905 96.841143-96.889905h240.591238c53.49181 0 96.889905 43.398095 96.889905 96.889905V209.432381c0 53.49181-43.398095 96.889905-96.889905 96.889905z m-0.682666-97.52381V-30.47619h-239.225905v239.225904h239.225905z"  horiz-adv-x="1024" />
      
      <glyph glyph-name="a-icon_default_tz2x" unicode="&#59081;" d="M102.4 732.16C102.4 766.1056 130.7648 793.6 165.7856 793.6h506.88c35.0208 0 63.3856-27.4944 63.3856-61.44V-25.6H165.7856C130.7648-25.6 102.4 1.8944 102.4 35.84V732.16zM672.6656 844.8h-506.88C102.8096 844.8 51.2 794.7264 51.2 732.16v-696.32C51.2-26.7264 102.8608-76.8 165.7856-76.8h570.2656a51.2 51.2 0 0 1 51.2 51.2V732.16c0 62.5664-51.6608 112.64-114.5856 112.64z m3.3792-102.8096c5.2736-1.2288 8.8064-5.4272 8.8064-9.8304L684.8 25.6H165.7856C158.72 25.6 153.6 30.5664 153.6 35.84V732.16c0 5.2736 5.12 10.24 12.1856 10.24h506.88l3.3792-0.4096zM758.6816 384c0 22.6304 18.2272 40.96 40.704 40.96h81.4592c22.528 0 40.7552-18.3296 40.7552-40.96v-348.16c0-33.9456-27.3408-61.44-61.0816-61.44h-101.888v409.6zM880.8448 476.16h-81.408c-50.8928 0-91.9552-41.3184-91.9552-92.16v-409.6a51.2 51.2 0 0 1 51.2-51.2h101.8368A112.4864 112.4864 0 0 1 972.8 35.84V384c0 50.8416-41.1136 92.16-91.9552 92.16z m-10.4448-102.4v-337.92l-0.3584-2.7648a9.984 9.984 0 0 0-9.5232-7.4752l-50.688 0.0512V373.76H870.4zM387.584 680.96a51.2 51.2 0 1 0 0-102.4H224.5632a51.2 51.2 0 1 0 0 102.4h162.9184zM468.992 486.4a51.2 51.2 0 1 0 0-102.4H224.6144a51.2 51.2 0 1 0 0 102.4H468.992z"  horiz-adv-x="1024" />
      
      <glyph glyph-name="a-bianzu23beifen42x" unicode="&#59082;" d="M208.448 182.016h-61.568a61.568 61.568 0 0 0-61.568 61.568V718.208a64 64 0 0 0 64 64h725.376a64 64 0 0 0 64-64v-472.192a64 64 0 0 0-64-64H208.448zM765.248 512.128L560.64 695.168c-26.88 28.416-27.52-0.64-27.52-0.64v-113.088c-230.208-30.656-290.112-171.648-305.6-243.2-5.504-25.216 9.6-20.16 17.92-10.752 103.872 116.928 287.36 95.68 287.36 95.68v-118.144c-1.472-38.208 30.272-4.224 30.272-4.224l204.608 182.272c13.44 13.12-2.432 29.056-2.432 29.056M512 246.016a64 64 0 0 0 64-64v-138.496a64 64 0 1 0-128 0v138.496a64 64 0 0 0 64 64zM785.856 61.312a64 64 0 1 0 0-128H238.08a64 64 0 0 0 0 128h547.712z"  horiz-adv-x="1024" />
      
      <glyph glyph-name="a-icon_qh2x" unicode="&#59083;" d="M916.764444 593.92a56.888889 56.888889 0 0 0 0-113.777778H113.777778a56.888889 56.888889 0 1 0 0 113.777778h802.986666zM609.28 851.342222a56.888889 56.888889 0 0 0 80.497778-0.910222l267.662222-273.635556a56.888889 56.888889 0 0 0-81.351111-79.530666l-267.662222 273.635555a56.888889 56.888889 0 0 0 0.910222 80.440889zM934.627556 309.077333a56.888889 56.888889 0 0 0 0-113.777777H131.584a56.888889 56.888889 0 1 0 0 113.777777H934.684444zM91.818667 292.807111a56.888889 56.888889 0 0 0 80.440889-0.853333l267.662222-273.635556a56.888889 56.888889 0 1 0-81.351111-79.530666l-267.662223 273.635555a56.888889 56.888889 0 0 0 0.910223 80.384z"  horiz-adv-x="1024" />
      
      <glyph glyph-name="a-icon_ss_12x" unicode="&#59084;" d="M478.549333 839.111111a421.660444 421.660444 0 1 1 0-843.320889A421.660444 421.660444 0 0 1 478.549333 839.111111z m0-113.777778a307.882667 307.882667 0 1 0 0-615.765333A307.882667 307.882667 0 0 0 478.549333 725.333333zM478.549333 667.477333c61.44 0 119.068444-24.462222 161.564445-66.958222a56.888889 56.888889 0 0 0-75.093334-85.162667l-5.290666 4.721778a114.232889 114.232889 0 0 1-81.180445 33.564445c-27.477333 0-53.304889-9.614222-73.728-26.737778l-7.395555-6.826667A56.888889 56.888889 0 0 0 316.871111 600.519111a227.953778 227.953778 0 0 0 161.621333 66.958222zM700.586667 195.413333a56.888889 56.888889 0 0 0 80.440889 0l182.044444-182.044444a56.888889 56.888889 0 0 0-80.440889-80.440889l-182.044444 182.044444a56.888889 56.888889 0 0 0 0 80.440889z"  horiz-adv-x="1024" />
      
      <glyph glyph-name="a-icon_yy2x" unicode="&#59085;" d="M330.069333 850.488889H200.248889C95.288889 850.488889 19.911111 750.990222 53.589333 651.320889c64.910222-192.512 152.291556-363.064889 266.410667-477.184 114.119111-114.176 284.672-201.500444 477.184-266.467556 99.726222-33.621333 199.224889 41.699556 199.224889 146.659556v129.877333a108.088889 108.088889 0 0 1-55.580445 94.435556l-113.152 62.976-8.647111 4.323555a108.088889 108.088889 0 0 1-92.216889-2.161777l-101.319111-50.631112a300.600889 300.600889 0 0 0-87.722666 45.226667 266.979556 266.979556 0 0 0-53.816889 53.873778 303.217778 303.217778 0 0 0-40.391111 73.955555l-4.892445 13.710223 50.744889 101.319111a108.088889 108.088889 0 0 1-2.161778 100.807111L424.618667 794.851556A108.088889 108.088889 0 0 1 330.069333 850.488889z m-3.299555-113.777778l59.448889-107.235555L327.281778 511.431111a56.888889 56.888889 0 0 1-4.949334-36.295111c7.736889-39.651556 28.785778-95.175111 70.485334-150.983111a381.326222 381.326222 0 0 1 76.686222-76.8c55.921778-41.984 111.616-63.032889 151.381333-70.656l7.395556-0.910222a56.888889 56.888889 0 0 1 28.785778 5.916444l117.930666 58.993778 107.576889-59.847111v-126.520889c0-28.558222-24.462222-47.104-48.981333-38.855111-177.322667 59.847111-334.222222 140.231111-433.152 239.104C301.568 353.450667 221.297778 510.293333 161.393778 687.672889c-8.305778 24.519111 10.24 49.038222 38.855111 49.038222h126.520889z"  horiz-adv-x="1024" />
      
      <glyph glyph-name="a-star_fill2x" unicode="&#59086;" d="M514.389333 25.941333l-206.984533-108.7488a68.266667 68.266667 0 0 0-98.986667 71.953067L247.808 219.477333a68.266667 68.266667 0 0 1-19.592533 60.416L60.757333 443.118933a68.266667 68.266667 0 0 0 37.888 116.5312l231.355734 33.5872a68.266667 68.266667 0 0 1 51.4048 37.341867L484.898133 840.226133a68.266667 68.266667 0 0 0 122.4704 0l103.424-209.646933a68.266667 68.266667 0 0 1 51.4048-37.341867l231.424-33.5872a68.266667 68.266667 0 0 0 37.819734-116.462933l-167.458134-163.157333a68.266667 68.266667 0 0 1-19.592533-60.484267l39.5264-230.4a68.266667 68.266667 0 0 0-99.054933-71.953067l-206.984534 108.7488a68.266667 68.266667 0 0 1-63.488 0z"  horiz-adv-x="1092" />
      
      <glyph glyph-name="a-icon_default_gl2x" unicode="&#59089;" d="M51.2 281.6m76.8 0l768 0q76.8 0 76.8-76.8l0-204.8q0-76.8-76.8-76.8l-768 0q-76.8 0-76.8 76.8l0 204.8q0 76.8 76.8 76.8ZM768 640m-179.2 0a179.2 179.2 0 1 1 358.4 0 179.2 179.2 0 1 1-358.4 0ZM768 870.4a230.4 230.4 0 1 1 0-460.8 230.4 230.4 0 0 1 0 460.8z m0-102.4a128 128 0 1 0 0-256 128 128 0 0 0 0 256zM128 793.6h204.8A76.8 76.8 0 0 0 409.6 716.8v-153.6a76.8 76.8 0 0 0-76.8-76.8h-204.8A76.8 76.8 0 0 0 51.2 563.2V716.8a76.8 76.8 0 0 0 76.8 76.8zM332.8 844.8h-204.8A128 128 0 0 1 0 716.8v-153.6a128 128 0 0 1 128-128h204.8A128 128 0 0 1 460.8 563.2V716.8A128 128 0 0 1 332.8 844.8z m0-102.4A25.6 25.6 0 0 0 358.4 716.8v-153.6a25.6 25.6 0 0 0-25.6-25.6h-204.8A25.6 25.6 0 0 0 102.4 563.2V716.8a25.6 25.6 0 0 0 25.6 25.6h204.8zM768 640m-76.8 0a76.8 76.8 0 1 1 153.6 0 76.8 76.8 0 1 1-153.6 0Z"  horiz-adv-x="1024" />
      
      <glyph glyph-name="a-icon_sp2x" unicode="&#59092;" d="M799.288889 799.288889H154.168889C97.678222 799.288889 51.2 754.119111 51.2 697.571556v-627.143112c0-56.547556 46.478222-101.717333 102.968889-101.717333h645.12c56.490667 0 102.968889 45.169778 102.968889 101.660445V697.628444C902.257778 754.119111 855.779556 799.288889 799.288889 799.288889z m-10.808889-113.777778v-603.022222H164.977778V685.511111h623.502222zM996.124444 676.408889l-184.32-134.428445a56.888889 56.888889 0 0 1-23.324444-45.966222v-246.385778a56.888889 56.888889 0 0 1 23.324444-46.023111l184.32-134.371555a56.888889 56.888889 0 0 1 90.453334 45.966222V630.385778a56.888889 56.888889 0 0 1-90.453334 45.966222z m-23.324444-157.866667v-291.441778l-70.542222 51.427556V467.114667l70.542222 51.427555zM312.888889 503.466667m-85.333333 0a85.333333 85.333333 0 1 1 170.666666 0 85.333333 85.333333 0 1 1-170.666666 0Z"  horiz-adv-x="1137" />
      
      <glyph glyph-name="a-icon_selectedbs_bs2x" unicode="&#59094;" d="M256 25.6v-76.8a51.2 51.2 0 0 1 51.2-51.2h409.6a51.2 51.2 0 0 1 51.2 51.2V25.6H256zM0 844.8m204.8 0l614.4 0q204.8 0 204.8-204.8l0-358.4q0-204.8-204.8-204.8l-614.4 0q-204.8 0-204.8 204.8l0 358.4q0 204.8 204.8 204.8ZM705.28 618.1888a51.2 51.2 0 0 0 91.136-46.6944l-105.1136-205.1072a76.8 76.8 0 0 0-130.2528-10.4448l-43.5712 59.4432-36.7104-64.5632-4.4032-6.4a76.8 76.8 0 0 0-107.6224-14.4896L250.5216 420.096a51.2 51.2 0 1 0 62.1568 81.408l94.8224-72.3968 40.448 71.168a76.8 76.8 0 0 0 98.1504 32.1536l6.6048-3.328a76.8 76.8 0 0 0 23.9616-21.3504l42.3936-57.7536 86.2208 168.192z"  horiz-adv-x="1024" />
      
      <glyph glyph-name="a-icon_yzcg2x" unicode="&#59095;" d="M671.872 770.048L569.92 872c-32 32-83.84 32-115.84 0L352.128 770.048H207.872a81.92 81.92 0 0 1-81.92-81.92v-144.256L24 441.92c-32-32-32-83.84 0-115.84l101.952-101.952v-144.256c0-45.184 36.672-81.92 81.92-81.92h144.256l101.952-101.952c32-32 83.84-32 115.84 0l101.952 101.952h144.256a81.92 81.92 0 0 1 81.92 81.92v144.256l101.952 101.952c32 32 32 83.84 0 115.84l-101.952 101.952V688.128a81.92 81.92 0 0 1-81.92 81.92h-144.256zM654.464 522.368a64 64 0 1 0 90.496-90.56l-234.624-234.624a64 64 0 0 0-90.496 0L302.464 314.496A64 64 0 0 0 392.96 404.992l72.064-72 189.44 189.376z"  horiz-adv-x="1024" />
      
      <glyph glyph-name="a-icon_sctp2x" unicode="&#59096;" d="M292.48 388.736a99.2 99.2 0 0 0 131.648 2.176l323.904-277.696a48 48 0 0 0-62.464-72.832L361.6 318.016c-1.216 1.088-3.008 1.024-3.84 0.256l-260.992-243.84A48 48 0 0 0 31.232 144.64L292.48 388.736zM516.352 880a48 48 0 0 0 0-96H128a16 16 0 0 1-16-16v-768c0-8.832 7.168-16 16-16h768a16 16 0 0 1 16 16V386.752a48 48 0 1 0 96 0V0A112 112 0 0 0 896-112H128A112 112 0 0 0 16 0V768C16 829.824 66.176 880 128 880h388.352zM702.72 360.96a99.648 99.648 0 0 0 131.072 8.064l156.48-126.976a48 48 0 1 0-60.544-74.496l-155.008 125.824a3.2 3.2 0 0 1-4.16-0.32l-122.24-122.24a48 48 0 0 0-67.84 67.904l122.24 122.24zM972.8 739.2a48 48 0 1 0 0-96h-307.2a48 48 0 0 0 0 96h307.2zM819.2 892.8a48 48 0 0 0 48-48v-307.2a48 48 0 1 0-96 0V844.8a48 48 0 0 0 48 48z"  horiz-adv-x="1024" />
      
      <glyph glyph-name="a-icon_default_sz2x" unicode="&#59097;" d="M387.584-25.6a436.736 436.736 0 0 0-189.184 112.9984c19.1488 22.272 30.72 50.9952 30.72 82.432 0 70.6048-58.4704 127.7952-130.56 127.7952-4.352 0-8.704-0.2048-12.9024-0.6144a419.4304 419.4304 0 0 0 11.0592 213.7088h1.8432c72.0896 0 130.56 57.2416 130.56 127.8464 0 20.2752-4.8128 39.424-13.4144 56.4736A437.0432 437.0432 0 0 0 395.6224 793.6 130.8672 130.8672 0 0 1 512 723.7632c50.7904 0 94.7712 28.416 116.3776 69.8368 68.096-18.432 129.536-52.736 179.9168-98.56a125.1328 125.1328 0 0 1-13.4144-56.4736c0-70.656 58.4704-127.8464 130.56-127.8464h1.8432a419.4304 419.4304 0 0 0 11.1104-213.7088 134.912 134.912 0 0 1-12.9536 0.6144c-72.0896 0-130.56-57.1904-130.56-127.7952 0-31.4368 11.5712-60.16 30.72-82.432A436.736 436.736 0 0 0 636.416-25.6 130.3552 130.3552 0 0 1 512 63.2832c-58.2144 0-107.52-37.376-124.416-88.8832zM582.9632 817.2544c-13.312-25.6-40.5504-42.2912-70.9632-42.2912a79.9744 79.9744 0 0 0-67.328 36.096l-3.6352 6.1952a51.2 51.2 0 0 1-58.7776 25.7536A488.2432 488.2432 0 0 1 181.248 732.8768a51.2 51.2 0 0 1-13.7216-55.1936l2.4576-5.6832c5.2224-10.3424 7.936-21.6576 7.936-33.4336 0-39.7824-31.488-72.8064-72.0896-76.3392l-8.3968-0.3072a51.2 51.2 0 0 1-49.4592-35.5328 470.6304 470.6304 0 0 1-12.4416-239.8208 51.2 51.2 0 0 1 54.9888-40.4992c2.6624 0.256 5.3248 0.3584 8.0384 0.3584 44.032 0 79.36-34.56 79.36-76.5952 0-15.616-4.7616-30.3616-13.568-42.9056l-4.7616-6.0928a51.2 51.2 0 0 1 2.304-69.3248A487.936 487.936 0 0 1 373.248-74.752a51.2 51.2 0 0 1 60.8768 27.8016l2.0992 5.4784c10.2912 31.4368 40.704 53.5552 75.7248 53.5552 32.512 0 61.0816-19.0464 73.216-47.0016l2.5088-6.5536a51.2 51.2 0 0 1 62.976-33.28 487.936 487.936 0 0 1 211.456 126.2592 51.2 51.2 0 0 1 6.1952 64.1024l-3.9424 5.2224a74.5472 74.5472 0 0 0-18.3296 48.9984c0 42.0352 35.328 76.5952 79.36 76.5952 2.7136 0 5.376-0.1024 8.0384-0.3584a51.2 51.2 0 0 1 54.9888 40.448 470.6304 470.6304 0 0 1-12.4416 239.872 51.2 51.2 0 0 1-49.4592 35.5328h-1.1264c-44.032 0-79.36 34.56-79.36 76.6464 0 9.4208 1.7408 18.5344 5.12 27.136l2.816 6.2976a51.2 51.2 0 0 1-11.264 60.8768 488.2432 488.2432 0 0 1-201.0112 110.1312 51.2 51.2 0 0 1-55.7056-20.6336l-3.072-5.12z m65.4848-83.8144l13.9264-5.4784c25.6-10.6496 49.9712-24.0128 72.6016-39.7824l13.312-9.728-1.024-4.608a177.152 177.152 0 0 1-3.584-35.328l0.256-9.8304c4.3008-78.08 59.2896-142.592 132.864-162.7136l10.24-2.4064 3.2256-15.616c3.7888-21.2992 5.7344-43.008 5.7344-65.0752l-0.512-19.0976-1.3824-17.6128-7.5776-1.4336c-81.5616-17.5104-142.848-89.0368-142.848-174.8992l0.3584-11.6736c1.28-19.3536 5.6832-38.0928 12.9536-55.6544l2.6624-5.9904-7.0656-5.888a385.6896 385.6896 0 0 0-84.0192-50.176l-7.2704-2.9696-3.7376 5.2224A182.7328 182.7328 0 0 1 512 114.4832l-10.2912-0.3072a182.5792 182.5792 0 0 1-135.2704-71.4752l-3.7888-5.2224-7.168 2.9184A385.6896 385.6896 0 0 0 271.36 90.624l-7.1168 5.888 2.7136 5.9904c8.704 21.0944 13.312 43.8784 13.312 67.328l-0.256 9.8304c-4.5056 81.4592-64.2048 148.224-142.592 165.0688l-7.6288 1.4336-1.3312 17.6128a372.992 372.992 0 0 0-0.512 19.0976l0.3584 16.4864c0.7168 16.384 2.56 32.6144 5.376 48.5888l3.1744 15.616 0.5632 0.0512c81.5616 17.5616 142.848 89.0368 142.848 174.9504l-0.4096 11.8784a176.64 176.64 0 0 1-3.1232 23.3984l-1.1264 4.608 13.3632 9.728c22.6304 15.7696 46.9504 29.1328 72.6016 39.7824l13.8752 5.4784 5.12-5.632A182.9376 182.9376 0 0 1 512 672.5632c50.688 0 97.7408 20.6336 131.328 55.296l5.12 5.5808zM512 589.1072c-112.128 0-203.52-89.4464-203.52-200.3456 0-110.8992 91.3408-200.3456 203.52-200.3456 112.128 0 203.52 89.4464 203.52 200.3456 0 110.8992-91.3408 200.3456-203.52 200.3456z m0-102.4c56.064 0 101.12-44.0832 101.12-97.9456S568.064 290.816 512 290.816c-56.064 0-101.12 44.0832-101.12 97.9456S455.936 486.7072 512 486.7072z"  horiz-adv-x="1024" />
      
      <glyph glyph-name="a-icon_kuaijiejian2x" unicode="&#59067;" d="M887.466667 896a170.666667 170.666667 0 0 0 170.666666-170.666667v-682.666666a170.666667 170.666667 0 0 0-170.666666-170.666667h-682.666667a170.666667 170.666667 0 0 0-170.666667 170.666667V725.333333a170.666667 170.666667 0 0 0 170.666667 170.666667h682.666667z m0-113.777778h-682.666667a56.888889 56.888889 0 0 1-56.888889-56.888889v-682.666666a56.888889 56.888889 0 0 1 56.888889-56.888889h682.666667a56.888889 56.888889 0 0 1 56.888889 56.888889V725.333333a56.888889 56.888889 0 0 1-56.888889 56.888889zM378.823111 333.824a117.077333 117.077333 0 1 1 0-234.268444 117.077333 117.077333 0 0 1 117.134222 117.134222v50.232889h100.352v-50.232889a117.077333 117.077333 0 1 1 234.268445 0 117.077333 117.077333 0 0 1-117.134222 117.134222h-50.232889V434.176h50.232889a117.077333 117.077333 0 1 1 0 234.268444 117.077333 117.077333 0 0 1-117.134223-117.134222v-50.232889H495.957333V551.253333A117.077333 117.077333 0 0 1 378.766222 668.444444a117.077333 117.077333 0 0 1 0-234.097777h50.289778V333.937778H378.88v-0.113778z m50.232889-117.191111a50.289778 50.289778 0 1 0-50.232889 50.289778h50.232889v-50.232889z m234.268444 334.791111a50.289778 50.289778 0 1 0 50.232889-50.232889h-50.232889v50.232889z m0-284.444444h50.232889a50.289778 50.289778 0 1 0-50.232889-50.289778v50.232889zM495.957333 434.289778h100.352V333.937778H495.957333V434.346667zM378.766222 501.191111a50.289778 50.289778 0 1 0 50.289778 50.232889v-50.232889H378.88z"  horiz-adv-x="1080" />
      
      <glyph glyph-name="icon_wenjian" unicode="&#59066;" d="M213.333333 896h472.832l245.077334-227.242667V0a128 128 0 0 0-128-128H213.333333a128 128 0 0 0-128 128V768a128 128 0 0 0 128 128zM719.936 661.034667c-22.229333-0.021333-40.298667 21.824-40.32 48.810666L679.445333 890.048l246.058667-228.821333-205.568-0.192zM310.122667 502.250667h226.133333a25.6 25.6 0 1 0 0-51.2h-226.133333a25.6 25.6 0 0 0 0 51.2z m0-170.709334h394.026666a25.6 25.6 0 1 0 0-51.2h-394.026666a25.6 25.6 0 0 0 0 51.2z m0-170.666666h394.026666a25.6 25.6 0 1 0 0-51.2h-394.026666a25.6 25.6 0 0 0 0 51.2z"  horiz-adv-x="1024" />
      
      <glyph glyph-name="sz_gx" unicode="&#58905;" d="M922.003861 791.7357a56.881779 56.881779 0 0 0 56.881778-56.881779V355.623103a56.881779 56.881779 0 0 0-113.763557 0V734.853921a56.881779 56.881779 0 0 0 56.881779 56.881779zM68.777181 412.504881a56.881779 56.881779 0 0 0 56.881778-56.881778v-379.230819a56.881779 56.881779 0 0 0-113.763557 0V355.623103a56.881779 56.881779 0 0 0 56.881779 56.881778zM68.777181 412.504881a56.881779 56.881779 0 0 0 56.881778-56.881778 369.731561 369.731561 0 0 1 626.495911-266.036079 56.881779 56.881779 0 1 0 79.065672-81.909761A483.495119 483.495119 0 0 0 11.895402 355.623103a56.881779 56.881779 0 0 0 56.881779 56.93866z m426.61334 426.61334a483.495119 483.495119 0 0 0 483.495118-483.495118 56.881779 56.881779 0 0 0-113.763557 0A369.731561 369.731561 0 0 1 229.354442 612.387452a56.881779 56.881779 0 1 0-81.85288 79.00879A482.129956 482.129956 0 0 0 495.390521 839.118221z"  horiz-adv-x="1024" />
      
      <glyph glyph-name="sz_ys" unicode="&#58906;" d="M876.088889 486.4H170.666667a113.777778 113.777778 0 0 1-113.777778-113.777778V-14.222222a113.777778 113.777778 0 0 1 113.777778-113.777778h705.422222a113.777778 113.777778 0 0 1 113.777778 113.777778V372.622222a113.777778 113.777778 0 0 1-113.777778 113.777778z m0-113.777778V-14.222222H170.666667V372.622222h705.422222zM523.377778 896a284.444444 284.444444 0 0 0 284.444444-284.444444v-182.044445a56.888889 56.888889 0 0 0-113.777778 0V611.555556a170.666667 170.666667 0 0 1-341.333333 0v-182.044445a56.888889 56.888889 0 1 0-113.777778 0V611.555556a284.444444 284.444444 0 0 0 284.444445 284.444444zM523.377778 304.355556a56.888889 56.888889 0 0 0 56.888889-56.888889v-136.533334a56.888889 56.888889 0 0 0-113.777778 0v136.533334a56.888889 56.888889 0 0 0 56.888889 56.888889z"  horiz-adv-x="1024" />
      
      <glyph glyph-name="sz_ty" unicode="&#58907;" d="M357.660444 824.888889a56.888889 56.888889 0 1 0 0-113.777778c-164.408889 0-236.771556-72.419556-236.771555-236.771555a56.888889 56.888889 0 1 0-113.777778 0c0 227.214222 123.335111 350.549333 350.549333 350.549333zM896 286.549333a56.888889 56.888889 0 0 0 56.888889-56.888889c0-227.214222-123.335111-350.549333-350.549333-350.549333a56.888889 56.888889 0 1 0 0 113.777778c164.408889 0 236.771556 72.419556 236.771555 236.771555a56.888889 56.888889 0 0 0 56.888889 56.888889zM839.111111 824.888889h-206.222222a113.777778 113.777778 0 0 1-113.777778-113.777778v-206.222222a113.777778 113.777778 0 0 1 113.777778-113.777778h206.222222a113.777778 113.777778 0 0 1 113.777778 113.777778V711.111111a113.777778 113.777778 0 0 1-113.777778 113.777778z m0-113.777778v-206.222222h-206.222222V711.111111h206.222222zM327.111111 312.888889H120.888889a113.777778 113.777778 0 0 1-113.777778-113.777778v-206.222222a113.777778 113.777778 0 0 1 113.777778-113.777778H327.111111a113.777778 113.777778 0 0 1 113.777778 113.777778V199.111111a113.777778 113.777778 0 0 1-113.777778 113.777778z m0-113.777778v-206.222222H120.888889V199.111111H327.111111z"  horiz-adv-x="1024" />
      
      <glyph glyph-name="sz_wj" unicode="&#58908;" d="M424.043789 852.884211H148.372211A99.705263 99.705263 0 0 1 48.505263 753.394526v-736.525473a99.705263 99.705263 0 0 1 99.866948-99.43579h781.150315a99.705263 99.705263 0 0 1 99.866948 99.43579V608.202105l-0.323369 7.760842a99.705263 99.705263 0 0 1-99.543579 91.728842h-364.544L466.351158 832.404211A53.894737 53.894737 0 0 1 424.043789 852.884211z m-26.085052-107.789474l98.735158-124.820211 4.688842-5.173894a53.894737 53.894737 0 0 1 37.564631-15.252211h382.652632v-574.625684H156.294737V745.094737h241.664zM926.989474 513.347368v-107.789473H150.905263v107.789473z"  horiz-adv-x="1077" />
      
      <glyph glyph-name="sz_gy" unicode="&#58909;" d="M512.000284 895.999431C374.386139 895.999431 245.305321 841.386128 149.959597 746.040403A510.463716 510.463716 0 0 1 0.000569 383.999716c0-137.614146 54.613303-266.694963 149.959028-362.040688A510.463716 510.463716 0 0 1 512.000284-128c137.614146 0 266.694963 54.613303 362.040688 149.959028A510.463716 510.463716 0 0 1 1024 383.999716c0 137.614146-54.613303 266.694963-149.959028 362.040687A510.463716 510.463716 0 0 1 512.000284 895.999431z m0-113.777714c107.121718 0 207.359885-42.382199 281.599844-116.622158A396.742891 396.742891 0 0 0 910.222285 383.999716a396.742891 396.742891 0 0 0-116.622157-281.599844A396.742891 396.742891 0 0 0 512.000284-14.222285a396.742891 396.742891 0 0 0-281.599843 116.622157A396.742891 396.742891 0 0 0 113.778283 383.999716c0 107.121718 42.382199 207.359885 116.622158 281.599843A396.742891 396.742891 0 0 0 512.000284 782.221717zM514.844727 679.821773a71.111072 71.111072 0 1 0 0-142.222143 71.111072 71.111072 0 0 0 0 142.222143zM523.378056 495.615654a56.888857 56.888857 0 0 0 56.888857-56.888858V156.444286a56.888857 56.888857 0 0 0-113.777714 0V383.089494l-1.706666 0.284444a56.888857 56.888857 0 0 0-43.406198 48.753751L420.978113 438.726796a56.888857 56.888857 0 0 0 56.888857 56.888858h45.511086zM603.022456 213.333144a56.888857 56.888857 0 0 0 0-113.777715H443.733656a56.888857 56.888857 0 0 0 0 113.777715h159.2888z"  horiz-adv-x="1024" />
      
      <glyph glyph-name="sz_tz" unicode="&#58910;" d="M704.296421 850.836211a53.894737 53.894737 0 0 0 0-107.789474H134.736842v-623.400421h230.885053a53.894737 53.894737 0 0 0 38.103579-15.791158l74.752-74.805895 74.805894 74.805895a53.894737 53.894737 0 0 0 31.043369 15.306105l7.06021 0.485053h284.77979V517.281684a53.894737 53.894737 0 1 0 107.789474 0v-397.635368a107.789474 107.789474 0 0 0-107.789474-107.789474h-262.467369l-97.118315-97.118316a53.894737 53.894737 0 0 0-71.141053-4.473263l-5.066105 4.473263-97.118316 97.118316H134.736842a107.789474 107.789474 0 0 0-107.52 99.705263L26.947368 119.646316V743.046737a107.789474 107.789474 0 0 0 107.789474 107.789474h569.559579zM526.551579 464.141474a53.894737 53.894737 0 1 0 0-107.789474h-45.217684a53.894737 53.894737 0 1 0 0 107.789474h45.271579zM718.794105 464.141474a53.894737 53.894737 0 1 0 0-107.789474H673.684211a53.894737 53.894737 0 1 0 0 107.789474h45.109894zM329.189053 464.141474a53.894737 53.894737 0 1 0 0-107.789474h-45.109895a53.894737 53.894737 0 1 0 0 107.789474h45.109895zM902.736842 653.473684a94.315789 94.315789 0 1 1 0 188.631579 94.315789 94.315789 0 0 1 0-188.631579z"  horiz-adv-x="1024" />
      
      <glyph glyph-name="sz_zhzx" unicode="&#58911;" d="M523.377778 896a238.933333 238.933333 0 1 1 0-477.866667 238.933333 238.933333 0 0 1 0 477.866667z m0-113.777778a125.155556 125.155556 0 1 0 0-250.311111 125.155556 125.155556 0 0 0 0 250.311111zM523.377778 395.377778a466.488889 466.488889 0 0 0 466.488889-466.488889 56.888889 56.888889 0 0 0-113.777778 0A352.711111 352.711111 0 0 1 170.666667-71.111111a56.888889 56.888889 0 0 0-113.777778 0 466.488889 466.488889 0 0 0 466.488889 466.488889z"  horiz-adv-x="1024" />
      
      </font>
</defs>
</svg>
